<?xml version="1.0" encoding="UTF-8" standalone="no"?>
<svg
   version="1.1"
   width="1170"
   height="1637"
   viewBox="0 0 1170 1637"
   id="svg12"
   sodipodi:docname="01e53c5618fd8d4d78c916b9dcc4ff92_out.svg"
   inkscape:version="1.1 (1:1.1+202105261517+ce6663b3b7)"
   xmlns:inkscape="http://www.inkscape.org/namespaces/inkscape"
   xmlns:sodipodi="http://sodipodi.sourceforge.net/DTD/sodipodi-0.dtd"
   xmlns="http://www.w3.org/2000/svg"
   xmlns:svg="http://www.w3.org/2000/svg"
   xmlns:rdf="http://www.w3.org/1999/02/22-rdf-syntax-ns#"
   xmlns:cc="http://creativecommons.org/ns#"
   xmlns:dc="http://purl.org/dc/elements/1.1/">
  <sodipodi:namedview
     pagecolor="#ffffff"
     bordercolor="#666666"
     borderopacity="1"
     objecttolerance="10"
     gridtolerance="10"
     guidetolerance="10"
     inkscape:pageopacity="0"
     inkscape:pageshadow="2"
     inkscape:window-width="1880"
     inkscape:window-height="1016"
     id="namedview6"
     showgrid="false"
     inkscape:zoom="0.54"
     inkscape:cx="586.11111"
     inkscape:cy="521.2963"
     inkscape:window-x="40"
     inkscape:window-y="27"
     inkscape:window-maximized="1"
     inkscape:current-layer="svg12"
     inkscape:document-rotation="0"
     inkscape:pagecheckerboard="0" />
  <metadata
     id="metadata18">
    <rdf:RDF>
      <cc:Work
         rdf:about="">
        <dc:format>image/svg+xml</dc:format>
        <dc:type
           rdf:resource="http://purl.org/dc/dcmitype/StillImage" />
      </cc:Work>
    </rdf:RDF>
  </metadata>
  <defs
     id="defs16" />
  <path
     stroke="none"
     fill="#000000"
     fill-rule="evenodd"
     d="M 585 1637 L 0 1637 L 0 818.5 L 0 0 L 585 0 L 1170 0 L 1170 818.5 L 1170 1637 L 585 1637 L 585 1637 M 866.5 1613 L 1146 1613 L 1146 1330.5 L 1146 1048 L 1036 1048 L 926 1048 L 926 1042.5 L 926 1037 L 1035.5 1037 L 1145 1037 L 1145 787 L 1145 537 L 864.978 537 L 584.956 537 L 585.643 722 L 586.33 907 L 579.188 907 L 572.047 907 L 572.509 896.25 L 573.48 710.25 L 573.989 535 L 429.995 535 L 286 535 L 286 530.165 L 286 525.33 L 391.166 524.665 L 534.166 524 L 572 524 L 572 520.5 L 572 517 L 579.5 517 L 587 517 L 587 520.334 L 587 523.668 L 788.166 524.334 L 1067.17 525 L 1145 525 L 1145 276.161 L 1145 27.3218 L 1091.75 26.6655 L 811.723 25.3416 L 584.947 24.6739 L 585.638 210.337 L 586.329 396 L 579.191 396 L 572.054 396 L 572.51 386.75 L 573.476 201.194 L 573.986 24.8881 L 395.743 25.4693 L 122.251 26.4657 L 26.0008 27.4995 L 25 276.559 L 25 525 L 95 525 L 165 525 L 165 529.849 L 165 534.698 L 155.25 535.344 L 85.25 535.995 L 25 536 L 25 785.5 L 25 1035 L 131.5 1035 L 238 1035 L 238 1041.06 L 238 1047.12 L 131.5 1046.4 L 25 1045.69 L 25 1328.34 L 25 1611 L 300.5 1611 L 576 1611 L 576 1329.5 L 576 1048 L 518.664 1048 L 410.164 1047.34 L 359 1046.67 L 359 1040.84 L 359 1035 L 465.5 1035 L 572 1035 L 572 1030.96 L 572 1026.91 L 579.25 1027.21 L 586.5 1027.5 L 586.805 1032.25 L 587.11 1037 L 696.055 1037 L 805 1037 L 805 1042.5 L 805 1048 L 696 1048 L 587 1048 L 587 1330.5 L 587 1613 L 866.5 1613 L 866.5 1613 Z"
     id="path10" />
  <circle
     style="fill:#00ffff;stroke-width:1.00157"
     id="path292"
     cx="70.006554"
     cy="71.193855"
     r="37.795277">
    <title
       id="title294">s e a:-90</title>
  </circle>
  <circle
     style="fill:#00ffff;stroke-width:1.00157"
     id="path292-36"
     cx="520.12579"
     cy="68.559433"
     r="37.795277">
    <title
       id="title294-75">s e a:-90</title>
  </circle>
  <circle
     style="fill:#00ffff;stroke-width:1.00157"
     id="path292-356"
     cx="71.092186"
     cy="475.66351"
     r="37.795277">
    <title
       id="title294-2">s e a:-90</title>
  </circle>
  <circle
     style="fill:#00ffff;stroke-width:1.00157"
     id="path292-91"
     cx="513.82471"
     cy="464.81302"
     r="37.795277">
    <title
       id="title294-27">s e a:-90</title>
  </circle>
  <circle
     style="fill:#00ffff;stroke-width:1.00157"
     id="path292-0"
     cx="290.50891"
     cy="263.32928"
     r="37.795277">
    <title
       id="title294-9">s e a:-90</title>
  </circle>
  <circle
     style="fill:#00ffff;stroke-width:1.00157"
     id="path292-360"
     cx="640.07751"
     cy="69.922836"
     r="37.795277">
    <title
       id="title294-626">s e a:-90</title>
  </circle>
  <circle
     style="fill:#00ffff;stroke-width:1.00157"
     id="path292-36-1"
     cx="1090.1968"
     cy="67.288422"
     r="37.795277">
    <title
       id="title294-75-8">s e a:-90</title>
  </circle>
  <circle
     style="fill:#00ffff;stroke-width:1.00157"
     id="path292-356-7"
     cx="641.16315"
     cy="474.39246"
     r="37.795277">
    <title
       id="title294-2-9">s e a:-90</title>
  </circle>
  <circle
     style="fill:#00ffff;stroke-width:1.00157"
     id="path292-91-2"
     cx="1083.8956"
     cy="463.54199"
     r="37.795277">
    <title
       id="title294-27-0">s e a:-90</title>
  </circle>
  <circle
     style="fill:#00ffff;stroke-width:1.00157"
     id="path292-0-2"
     cx="860.5799"
     cy="262.05826"
     r="37.795277">
    <title
       id="title294-9-3">s e a:-90</title>
  </circle>
  <circle
     style="fill:#00ffff;stroke-width:1.00157"
     id="path292-75"
     cx="651.16132"
     cy="586.45636"
     r="37.795277">
    <title
       id="title294-92">s e a:-90</title>
  </circle>
  <circle
     style="fill:#00ffff;stroke-width:1.00157"
     id="path292-36-2"
     cx="1101.2806"
     cy="583.8219"
     r="37.795277">
    <title
       id="title294-75-89">s e a:-90</title>
  </circle>
  <circle
     style="fill:#00ffff;stroke-width:1.00157"
     id="path292-356-73"
     cx="652.24695"
     cy="990.92609"
     r="37.795277">
    <title
       id="title294-2-6">s e a:-90</title>
  </circle>
  <circle
     style="fill:#00ffff;stroke-width:1.00157"
     id="path292-91-1"
     cx="1094.9795"
     cy="980.0755"
     r="37.795277">
    <title
       id="title294-27-2">s e a:-90</title>
  </circle>
  <circle
     style="fill:#00ffff;stroke-width:1.00157"
     id="path292-0-9"
     cx="871.66364"
     cy="778.5918"
     r="37.795277">
    <title
       id="title294-9-31">s e a:-90</title>
  </circle>
  <circle
     style="fill:#00ffff;stroke-width:1.00157"
     id="path292-94"
     cx="77.512108"
     cy="579.84399"
     r="37.795277">
    <title
       id="title294-78">s e a:-90</title>
  </circle>
  <circle
     style="fill:#00ffff;stroke-width:1.00157"
     id="path292-36-4"
     cx="527.63135"
     cy="577.20959"
     r="37.795277">
    <title
       id="title294-75-5">s e a:-90</title>
  </circle>
  <circle
     style="fill:#00ffff;stroke-width:1.00157"
     id="path292-356-0"
     cx="78.59774"
     cy="984.31366"
     r="37.795277">
    <title
       id="title294-2-3">s e a:-90</title>
  </circle>
  <circle
     style="fill:#00ffff;stroke-width:1.00157"
     id="path292-91-6"
     cx="521.33026"
     cy="973.4632"
     r="37.795277">
    <title
       id="title294-27-1">s e a:-90</title>
  </circle>
  <circle
     style="fill:#00ffff;stroke-width:1.00157"
     id="path292-0-0"
     cx="298.01447"
     cy="771.97943"
     r="37.795277">
    <title
       id="title294-9-6">s e a:-90</title>
  </circle>
  <circle
     style="fill:#00ffff;stroke-width:1.00157"
     id="path292-32"
     cx="76.501747"
     cy="1121.5886"
     r="37.795277">
    <title
       id="title294-0">s e a:-90</title>
  </circle>
  <circle
     style="fill:#00ffff;stroke-width:1.00157"
     id="path292-36-6"
     cx="526.62103"
     cy="1118.9542"
     r="37.795277">
    <title
       id="title294-75-1">s e a:-90</title>
  </circle>
  <circle
     style="fill:#00ffff;stroke-width:1.00157"
     id="path292-356-5"
     cx="77.587379"
     cy="1526.0582"
     r="37.795277">
    <title
       id="title294-2-5">s e a:-90</title>
  </circle>
  <circle
     style="fill:#00ffff;stroke-width:1.00157"
     id="path292-91-4"
     cx="520.31995"
     cy="1515.2078"
     r="37.795277">
    <title
       id="title294-27-7">s e a:-90</title>
  </circle>
  <circle
     style="fill:#00ffff;stroke-width:1.00157"
     id="path292-0-6"
     cx="297.00412"
     cy="1313.724"
     r="37.795277">
    <title
       id="title294-9-5">s e a:-90</title>
  </circle>
  <circle
     style="fill:#00ffff;stroke-width:1.00157"
     id="path292-6"
     cx="645.69214"
     cy="1115.5752"
     r="37.795277">
    <title
       id="title294-93">s e a:-90</title>
  </circle>
  <circle
     style="fill:#00ffff;stroke-width:1.00157"
     id="path292-36-7"
     cx="1095.8113"
     cy="1112.9408"
     r="37.795277">
    <title
       id="title294-75-4">s e a:-90</title>
  </circle>
  <circle
     style="fill:#00ffff;stroke-width:1.00157"
     id="path292-356-52"
     cx="646.77777"
     cy="1520.0448"
     r="37.795277">
    <title
       id="title294-2-54">s e a:-90</title>
  </circle>
  <circle
     style="fill:#00ffff;stroke-width:1.00157"
     id="path292-91-7"
     cx="1089.5103"
     cy="1509.1943"
     r="37.795277">
    <title
       id="title294-27-4">s e a:-90</title>
  </circle>
  <circle
     style="fill:#00ffff;stroke-width:1.00157"
     id="path292-0-4"
     cx="866.19452"
     cy="1307.7106"
     r="37.795277">
    <title
       id="title294-9-30">s e a:-90</title>
  </circle>
</svg>
