<?xml version="1.0" encoding="UTF-8" standalone="no"?>
<svg
   xmlns:dc="http://purl.org/dc/elements/1.1/"
   xmlns:cc="http://creativecommons.org/ns#"
   xmlns:rdf="http://www.w3.org/1999/02/22-rdf-syntax-ns#"
   xmlns:svg="http://www.w3.org/2000/svg"
   xmlns="http://www.w3.org/2000/svg"
   xmlns:sodipodi="http://sodipodi.sourceforge.net/DTD/sodipodi-0.dtd"
   xmlns:inkscape="http://www.inkscape.org/namespaces/inkscape"
   version="1.1"
   width="1555"
   height="1429"
   viewBox="0 0 1555 1429"
   id="svg12"
   sodipodi:docname="7e80c5f4c9905bc273560854d8abe916_out.svg"
   inkscape:version="1.0.2 (1.0.2+r75+1)">
  <sodipodi:namedview
     pagecolor="#ffffff"
     bordercolor="#666666"
     borderopacity="1"
     objecttolerance="10"
     gridtolerance="10"
     guidetolerance="10"
     inkscape:pageopacity="0"
     inkscape:pageshadow="2"
     inkscape:window-width="1880"
     inkscape:window-height="1016"
     id="namedview6"
     showgrid="false"
     inkscape:zoom="0.43544714"
     inkscape:cx="808.97647"
     inkscape:cy="862.4778"
     inkscape:window-x="40"
     inkscape:window-y="27"
     inkscape:window-maximized="1"
     inkscape:current-layer="svg12" />
  <metadata
     id="metadata18">
    <rdf:RDF>
      <cc:Work
         rdf:about="">
        <dc:format>image/svg+xml</dc:format>
        <dc:type
           rdf:resource="http://purl.org/dc/dcmitype/StillImage" />
      </cc:Work>
    </rdf:RDF>
  </metadata>
  <defs
     id="defs16" />
  <path
     stroke="none"
     fill="#000000"
     fill-rule="evenodd"
     d="M 777.5 1429 L 0 1429 L 0 714.5 L 0 0 L 777.5 0 L 1555 0 L 1555 714.5 L 1555 1429 L 777.5 1429 L 777.5 1429 M 173.351 1405 L 321.707 1405 L 322.353 1397.35 L 323 1124.85 L 323 860 L 342.5 860 L 362 860 L 362 865.5 L 362 871 L 348 871 L 334 871 L 334 1127.5 L 334 1384 L 483 1384 L 632 1384 L 632 1127.5 L 632 871 L 547.5 871 L 463 871 L 463 865.5 L 463 860 L 593.5 860 L 724 860 L 724 865.5 L 724 871 L 683.5 871 L 643 871 L 643 1123.98 L 643 1376.96 L 645.25 1377.43 L 675.881 1379 L 963.821 1380.03 L 1223.55 1379.73 L 1224.36 1125.25 L 1225.01 871 L 1025 871 L 825 871 L 825 865.5 L 825 860 L 909 860 L 993 860 L 993 830 L 993 800 L 998 800 L 1003 800 L 1003 830 L 1003 860 L 1117 860 L 1231 860 L 1231 696.5 L 1231 533 L 1117 533 L 1003 533 L 1003 554 L 1003 575 L 998 575 L 993 575 L 993 554.5 L 993 534 L 988 534 L 983 534 L 983 528.5 L 983 523 L 1107 523 L 1231 522 L 1239.44 521 L 1248.5 522 L 1258.06 523 L 1267 523 L 1267 528 L 1267 533 L 1254 533 L 1241 533 L 1241 782 L 1241 1031 L 1386 1031 L 1531 1031 L 1531 783.164 L 1531 535.328 L 1470.84 534.664 L 1389.34 534 L 1368 534 L 1368 528.5 L 1369.5 523 L 1371 273.998 L 1371 24.996 L 1122.25 25.248 L 873.5 25.5 L 873.248 274.851 L 872.996 524.202 L 877.498 523.844 L 882 523.486 L 882 528.779 L 882 534.072 L 872.25 533.786 L 862.5 533.5 L 862.248 295.25 L 861.996 57 L 541.498 57 L 221 57 L 221 464 L 220.75 871.195 L 123 871.945 L 25.5 872.5 L 25.2481 1138.75 L 24.9963 1405 L 173.351 1405 L 173.351 1405 Z"
     id="path10" />
  <circle
     style="fill:#00ffff;stroke-width:1.00157"
     id="path292"
     cx="509.82077"
     cy="293.95071"
     r="37.795277">
    <title
       id="title294">s e a:-90</title>
  </circle>
  <circle
     style="fill:#00ffff;stroke-width:1.00157"
     id="path292-3"
     cx="1132.1696"
     cy="227.35251"
     r="37.795277">
    <title
       id="title294-6">s e a:-90</title>
  </circle>
  <circle
     style="fill:#00ffff;stroke-width:1.00157"
     id="path292-7"
     cx="1352.6326"
     cy="780.80658"
     r="37.795277">
    <title
       id="title294-5">s e a:-90</title>
  </circle>
  <circle
     style="fill:#00ffff;stroke-width:1.00157"
     id="path292-35"
     cx="1017.345"
     cy="718.80133"
     r="37.795277">
    <title
       id="title294-62">s e a:-90</title>
  </circle>
  <circle
     style="fill:#00ffff;stroke-width:1.00157"
     id="path292-9"
     cx="486.85587"
     cy="714.20837"
     r="37.795277">
    <title
       id="title294-1">s e a:-90</title>
  </circle>
  <circle
     style="fill:#00ffff;stroke-width:1.00157"
     id="path292-2"
     cx="415.66467"
     cy="1097.7222"
     r="37.795277">
    <title
       id="title294-7">s e a:-90</title>
  </circle>
  <circle
     style="fill:#00ffff;stroke-width:1.00157"
     id="path292-0"
     cx="122.38811"
     cy="1176.3959"
     r="37.795277">
    <title
       id="title294-9">s e a:-90</title>
  </circle>
  <circle
     style="fill:#00ffff;stroke-width:1.00157"
     id="path292-36"
     cx="884.14862"
     cy="1136.7626"
     r="37.795277">
    <title
       id="title294-0">s e a:-90</title>
  </circle>
</svg>
