<?xml version="1.0" encoding="UTF-8" standalone="no"?>
<svg
   version="1.1"
   width="1366"
   height="1059"
   viewBox="0 0 1366 1059"
   id="svg12"
   sodipodi:docname="ac5ac75376e2e43d9bb14460e41271d0_out.svg"
   inkscape:version="1.1.1 (1:1.1+202109281949+c3084ef5ed)"
   xmlns:inkscape="http://www.inkscape.org/namespaces/inkscape"
   xmlns:sodipodi="http://sodipodi.sourceforge.net/DTD/sodipodi-0.dtd"
   xmlns="http://www.w3.org/2000/svg"
   xmlns:svg="http://www.w3.org/2000/svg"
   xmlns:rdf="http://www.w3.org/1999/02/22-rdf-syntax-ns#"
   xmlns:cc="http://creativecommons.org/ns#"
   xmlns:dc="http://purl.org/dc/elements/1.1/">
  <sodipodi:namedview
     pagecolor="#ffffff"
     bordercolor="#666666"
     borderopacity="1"
     objecttolerance="10"
     gridtolerance="10"
     guidetolerance="10"
     inkscape:pageopacity="0"
     inkscape:pageshadow="2"
     inkscape:window-width="1880"
     inkscape:window-height="1016"
     id="namedview6"
     showgrid="false"
     inkscape:zoom="0.41548631"
     inkscape:cx="891.72613"
     inkscape:cy="626.97613"
     inkscape:window-x="40"
     inkscape:window-y="27"
     inkscape:window-maximized="1"
     inkscape:current-layer="svg12"
     inkscape:pagecheckerboard="0" />
  <metadata
     id="metadata18">
    <rdf:RDF>
      <cc:Work
         rdf:about="">
        <dc:format>image/svg+xml</dc:format>
        <dc:type
           rdf:resource="http://purl.org/dc/dcmitype/StillImage" />
      </cc:Work>
    </rdf:RDF>
  </metadata>
  <defs
     id="defs16" />
  <path
     stroke="none"
     fill="#000000"
     fill-rule="evenodd"
     d="M 683 1059 L 0 1059 L 0 529.5 L 0 0 L 683 0 L 1366 0 L 1366 529.5 L 1366 1059 L 683 1059 L 683 1059 M 913.25 1034.8 L 1033 1035 L 1033 1028.5 L 1033 1022 L 1038.5 1022 L 1044 1022 L 1044 1028.5 L 1044 1035 L 1089.75 1034.98 L 1237.5 1033.5 L 1340.75 1032.02 L 1342 783.107 L 1340.75 533.746 L 1197 536.596 L 1049 539.957 L 1043.5 540 L 1043.77 743.5 L 1044.05 947 L 1038.52 947 L 1033 947 L 1033 743.382 L 1033 539.763 L 945.5 540.509 L 858 541.254 L 858 534.127 L 858 527 L 883 527 L 908 526 L 970.5 525 L 1033 525 L 1033 428 L 1033 331 L 1038.5 331 L 1044 331 L 1044 430.152 L 1044 529.304 L 1066.25 528.657 L 1130.75 527.348 L 1173 526.006 L 1246.75 524.659 L 1331.25 523.345 L 1342 522.699 L 1342 273.849 L 1342 25 L 1193 25 L 1044 25 L 1044 140.5 L 1044 256 L 1038.5 256 L 1033 256 L 1033 140.5 L 1033 25 L 783.504 25 L 534.008 25 L 533.754 146.75 L 533.5 268.5 L 528.25 268.802 L 523 269.105 L 523 147.05 L 523 24.996 L 274.25 25.248 L 25.5 25.5 L 25.2461 148.75 L 24.9921 272 L 153.889 272 L 283.393 273.582 L 284 401.463 L 284 527.762 L 357 528.507 L 430 529.252 L 430 535.632 L 430 542.012 L 351.75 541.756 L 273.5 541.5 L 273.246 412.25 L 272.992 283 L 148.996 283 L 25 283 L 25 531.5 L 25 780 L 274 780 L 523 780 L 523 661.038 L 523 542.075 L 513.75 541.788 L 504.5 541.5 L 504.5 536 L 504.5 530.5 L 513.75 530.514 L 523 530.529 L 523 437.264 L 523 344 L 528.5 344 L 534 344 L 534 437.124 L 534 530.248 L 596.75 529.622 L 721.25 528.376 L 783 527.756 L 783 534.378 L 783 541 L 658.5 541 L 534 541 L 534 787 L 534 1033 L 569.75 1033.14 L 699.5 1033.94 L 913.25 1034.8 L 913.25 1034.8 Z"
     id="path10" />
  <circle
     style="fill:#00ffff;stroke-width:1.00157"
     id="23"
     cx="1292.681"
     cy="75.916573"
     r="37.795277">
    <title
       id="title294-62">s e a:-90</title>
  </circle>
  <circle
     style="fill:#00ffff;stroke-width:1.00157"
     id="19"
     cx="1288.6115"
     cy="984.53009"
     r="37.795277">
    <title
       id="title294-1-6">s e a:90</title>
  </circle>
  <circle
     style="fill:#00ffff;stroke-width:1.00157"
     id="14"
     cx="591.44501"
     cy="982.22699"
     r="37.795277">
    <title
       id="title294-1-7">s e a:90</title>
  </circle>
  <circle
     style="fill:#00ffff;stroke-width:1.00157"
     id="9"
     cx="974.90753"
     cy="77.541077"
     r="37.795277">
    <title
       id="title294-1-8">s e a:-90</title>
  </circle>
  <circle
     style="fill:#00ffff;stroke-width:1.00157"
     id="2"
     cx="86.005692"
     cy="83.941162"
     r="37.795277">
    <title
       id="title294-1-75">s e a:-90</title>
  </circle>
  <circle
     style="fill:#00ffff;stroke-width:1.00157"
     id="6"
     cx="80.136742"
     cy="715.70593"
     r="37.795277">
    <title
       id="title294-1-28">s e a:90</title>
  </circle>
  <circle
     style="fill:#00ffff;stroke-width:0.469587"
     id="2-3"
     cx="565.62231"
     cy="308.61484"
     r="17.720366">
    <title
       id="title294-1-75-6">s e a:0</title>
  </circle>
  <circle
     style="fill:#00ffff;stroke-width:0.469587"
     id="2-3-7"
     cx="987.16071"
     cy="293.01358"
     r="17.720366">
    <title
       id="title294-1-75-6-5">s e a:180</title>
  </circle>
  <circle
     style="fill:#00ffff;stroke-width:0.469587"
     id="2-3-7-5"
     cx="979.86719"
     cy="979.91742"
     r="17.720366">
    <title
       id="title294-1-75-6-5-62">s e a:180</title>
  </circle>
  <circle
     style="fill:#00ffff;stroke-width:0.469587"
     id="2-3-3"
     cx="815.05865"
     cy="597.21802"
     r="17.720366">
    <title
       id="title294-1-75-6-56">s e a:-90</title>
  </circle>
  <circle
     style="fill:#00ffff;stroke-width:0.469587"
     id="2-3-2"
     cx="459.4248"
     cy="590.78455"
     r="17.720366">
    <title
       id="title294-1-75-6-9">s e a:-90</title>
  </circle>
  <circle
     style="fill:#00ffff;stroke-width:0.469587"
     id="2-3-7-3"
     cx="491.04822"
     cy="306.51492"
     r="17.720366">
    <title
       id="title294-1-75-6-5-6">s e a:180</title>
  </circle>
  <circle
     style="fill:#00ffff;stroke-width:0.469587"
     id="2-3-75"
     cx="1087.9774"
     cy="295.74527"
     r="17.720366">
    <title
       id="title294-1-75-6-3">s e a:0</title>
  </circle>
  <circle
     style="fill:#00ffff;stroke-width:0.469587"
     id="2-3-75-9"
     cx="1096.2235"
     cy="983.14703"
     r="17.720366">
    <title
       id="title294-1-75-6-3-1">s e a:0</title>
  </circle>
  <circle
     style="fill:#00ffff;stroke-width:0.469587"
     id="2-3-3-2"
     cx="816.90753"
     cy="474.14319"
     r="17.720366">
    <title
       id="title294-1-75-6-56-7">s e a:90</title>
  </circle>
  <circle
     style="fill:#00ffff;stroke-width:0.469587"
     id="2-3-3-2-0"
     cx="457.29544"
     cy="480.68231"
     r="17.720366">
    <title
       id="title294-1-75-6-56-7-9">s e a:90</title>
  </circle>
</svg>
