<?xml version="1.0" encoding="UTF-8" standalone="no"?>
<!-- Created with Inkscape (http://www.inkscape.org/) -->

<svg
   version="1.1"
   id="svg122"
   width="1795"
   height="1872"
   viewBox="0 0 1795 1872"
   sodipodi:docname="dac28e8e324100b7fd7c14c841f79148_out.svg"
   inkscape:version="1.1.1 (1:1.1+202109281949+c3084ef5ed)"
   xmlns:inkscape="http://www.inkscape.org/namespaces/inkscape"
   xmlns:sodipodi="http://sodipodi.sourceforge.net/DTD/sodipodi-0.dtd"
   xmlns="http://www.w3.org/2000/svg"
   xmlns:svg="http://www.w3.org/2000/svg">
  <defs
     id="defs126" />
  <sodipodi:namedview
     id="namedview124"
     pagecolor="#ffffff"
     bordercolor="#666666"
     borderopacity="1.0"
     inkscape:pageshadow="2"
     inkscape:pageopacity="0.0"
     inkscape:pagecheckerboard="0"
     showgrid="false"
     inkscape:zoom="0.44497863"
     inkscape:cx="947.23649"
     inkscape:cy="888.80672"
     inkscape:window-width="1880"
     inkscape:window-height="1016"
     inkscape:window-x="40"
     inkscape:window-y="27"
     inkscape:window-maximized="1"
     inkscape:current-layer="11111" />
  <g
     inkscape:groupmode="layer"
     inkscape:label="Image"
     transform="translate(0,0)"
     id="11111">
    <path
       style="fill:#000000"
       d="M 0 936 L 0 0 L 897.5 0 L 1795 0 L 1795 936 L 1795 1872 L 897.5 1872 L 0 1872 Z M 1041 1775.5 L 1041 1703 L 1004.5 1703 L 968 1703 L 968 1697.5 L 968 1692 L 1004.5 1692 L 1041 1692 L 1041 1521 L 1041 1350 L 1031 1350 L 1021 1350 L 1021 1344.66 L 1021 1339.32 L 1044.25 1338.66 C 1057.04 1338.3 1111.49 1338 1165.25 1338 L 1263 1338 L 1263 1285.5 L 1263 1233 L 1268.5 1233 C 1271.53 1233 1273.95 1233.34 1273.88 1233.75 C 1273.82 1234.16 1273.82 1257.75 1273.88 1286.15 L 1274 1337.81 L 1312.75 1338.15 C 1334.06 1338.35 1352.06 1338.87 1352.75 1339.31 C 1353.73 1339.95 1354 1358.91 1354 1428.56 L 1354 1517 L 1399.5 1517 L 1445 1517 L 1445 1522 L 1445 1527 L 1399.5 1527 L 1354 1527 L 1354 1618 L 1354 1709 L 1562.5 1709 L 1771 1709 L 1771 1618.01 L 1771 1527.02 L 1730.25 1526.76 L 1689.5 1526.5 L 1689.5 1522 L 1689.5 1517.5 L 1730.25 1517.24 L 1771 1516.98 L 1771 1308.49 L 1771 1100 L 1522.5 1100 L 1274 1100 L 1274 1116 L 1274 1132 L 1268.5 1132 L 1263 1132 L 1263 1116.01 L 1263 1100.01 L 1112.75 1099.76 L 962.5 1099.5 L 962.19 1094.5 C 962.02 1091.75 961.457 1089.07 960.94 1088.55 C 959.617 1087.22 959.676 918.321 961 917.502 C 961.622 917.118 962 907.659 962 892.443 L 962 868 L 967.5 868 L 973 868 L 973 887 L 973 906 L 1221.96 906 L 1470.93 906 L 1471.21 782.75 C 1471.37 714.962 1471.37 639.362 1471.22 614.75 L 1470.94 570 L 1221.97 570 L 973.003 570 L 973.003 653.5 L 973.003 737 L 967.503 737 L 962.003 737 L 962.003 648.059 C 962.003 589.844 961.657 558.905 961.003 558.5 C 960.351 558.097 960.003 532.502 960.003 484.98 L 960.003 412.077 L 956.253 411.068 C 954.19 410.513 912.453 400.132 863.503 387.998 C 814.553 375.865 764.761 363.476 752.855 360.469 C 740.949 357.461 730.824 355 730.355 355 C 729.886 355 714.203 367.118 695.503 381.928 L 661.503 408.856 L 659.391 406.621 C 653.691 400.587 651.887 402.649 687.537 374.45 C 705.419 360.305 720.241 348.424 720.474 348.047 C 720.94 347.292 707.325 323.881 687.695 291.683 C 680.711 280.234 675 270.629 675 270.338 C 675 270.046 672.51 266.028 669.467 261.407 C 666.424 256.786 662.929 251.092 661.699 248.753 C 660.469 246.414 657.364 241.317 654.797 237.426 C 652.231 233.536 648.978 228.183 647.568 225.531 C 646.158 222.88 644.458 220.052 643.791 219.248 C 643.124 218.444 642.111 216.934 641.539 215.891 C 640.968 214.849 629.439 195.884 615.921 173.748 C 602.403 151.612 590.478 132.055 589.421 130.289 C 588.365 128.524 580.677 115.924 572.339 102.289 C 564 88.6552 556.35 76.0921 555.339 74.3713 C 551.004 66.9951 533.265 37.9406 529.316 31.748 L 525.011 24.9961 L 275.255 25.248 L 25.5 25.5 L 25.2462 153.25 L 24.9924 281 L 144.746 281.205 C 278.16 281.433 281.858 281.457 282.234 282.067 C 282.38 282.305 283.175 283.727 284 285.227 C 285.302 287.594 334.26 363.581 361.813 406 C 374.17 425.024 374.633 425.739 382.551 438 C 386.281 443.775 389.707 448.65 390.166 448.833 C 390.625 449.017 391 449.654 391 450.25 C 391 451.551 405.053 473.357 406.199 473.833 C 406.639 474.017 407 474.613 407 475.158 C 407 476.132 415.66 490.02 416.879 491 C 418.025 491.923 420 495.959 420 497.379 C 420 498.153 420.675 499.045 421.5 499.362 C 422.325 499.678 423 500.557 423 501.314 C 423 502.071 423.9 503.505 425 504.5 C 426.1 505.495 427 506.846 427 507.502 C 427 508.158 427.788 509.625 428.75 510.763 C 433.2 516.024 434 517.058 434 517.552 C 434 517.843 434.848 519.3 435.884 520.79 C 441.713 529.174 449 541.272 449 542.566 C 449 543.389 449.675 544.322 450.5 544.638 C 451.325 544.955 452 545.813 452 546.545 C 452 547.277 453.35 549.355 455 551.161 C 456.65 552.968 458 554.822 458 555.281 C 458 556.313 468.605 548.186 471.924 544.611 C 473.258 543.175 474.959 542 475.706 542 C 476.452 542 477.322 541.325 477.638 540.5 C 477.955 539.675 478.625 539 479.128 539 C 479.631 539 485.501 534.612 492.172 529.25 C 498.843 523.888 506.57 517.827 509.343 515.782 C 512.116 513.737 514.771 511.374 515.242 510.532 C 515.714 509.689 516.742 509 517.527 509 C 518.312 509 519.68 507.893 520.566 506.539 C 521.453 505.185 522.976 503.825 523.949 503.516 C 524.923 503.207 530.823 498.942 537.062 494.039 L 548.405 485.123 L 551.541 488.311 C 553.863 490.672 554.431 491.89 553.729 493 C 552.586 494.808 531.443 511.441 525.631 515.104 C 523.359 516.537 520.011 519.104 518.192 520.81 C 512.235 526.394 505.242 532 504.234 532 C 503.69 532 502.637 532.733 501.894 533.628 C 499.861 536.078 472.763 557.53 470.75 558.283 C 469.788 558.643 469 559.401 469 559.969 C 469 560.536 468.351 561 467.557 561 C 466.763 561 465.413 562 464.557 563.223 C 463.186 565.18 463 573.355 463 631.723 L 463 698 L 457.5 698 L 452 698 L 452 632.73 L 452 567.46 L 413.25 561.071 C 391.938 557.557 373.43 554.293 372.123 553.817 C 369.98 553.038 369.796 552.506 370.255 548.427 C 370.536 545.938 371.031 543.635 371.356 543.311 C 371.681 542.986 388.465 545.701 408.655 549.345 C 428.845 552.988 445.532 555.802 445.737 555.596 C 445.943 555.391 444.961 553.982 443.555 552.465 C 442.15 550.949 441 549.255 441 548.701 C 441 547.884 435.269 538.472 426.238 524.458 C 419.987 514.759 418.724 513 418.012 513 C 417.563 513 416.703 511.762 416.101 510.25 C 414.465 506.137 402.54 487.088 393.903 474.79 C 392.856 473.3 392 471.806 392 471.47 C 392 471.133 390.039 468.078 387.642 464.679 C 385.246 461.281 381.983 456.323 380.392 453.662 C 377.302 448.491 377.024 448.06 369.75 437.096 C 367.137 433.159 365 429.697 365 429.402 C 365 429.108 363.875 427.392 362.5 425.589 C 361.125 423.786 360 421.933 360 421.47 C 360 421.007 359.156 419.7 358.126 418.564 C 357.095 417.429 339.034 389.725 317.992 357 C 296.949 324.275 279.268 296.914 278.701 296.198 C 277.898 295.185 276.531 296.019 272.553 299.948 C 269.739 302.727 267.037 305 266.547 305 C 266.058 305 263.785 306.954 261.496 309.343 C 259.208 311.731 254.604 315.894 251.266 318.593 C 247.927 321.292 238.88 329.012 231.16 335.75 C 223.44 342.488 216.679 348 216.134 348 C 215.59 348 214.1 349.296 212.822 350.88 C 210.279 354.033 142.268 412.666 132.336 420.267 C 128.946 422.862 126.021 425.387 125.836 425.879 C 125.214 427.532 77.6047 467.959 74.5359 469.439 C 72.8661 470.244 70.6543 472.162 69.6207 473.701 C 68.5871 475.241 64.8786 478.942 61.3796 481.926 C 57.8807 484.91 55.2302 487.563 55.4896 487.823 C 56.2932 488.627 77.2707 491.982 81.55 491.991 C 83.7775 491.996 86.0275 492.387 86.55 492.859 C 87.6852 493.885 100.413 496 105.456 496 C 107.42 496 109.808 496.427 110.764 496.949 C 111.719 497.471 115.376 498.36 118.892 498.924 C 122.407 499.488 125.452 500.119 125.659 500.325 C 125.865 500.532 125.493 503.046 124.831 505.912 C 123.793 510.407 123.344 511.058 121.564 510.647 C 120.429 510.385 112.3 508.924 103.5 507.399 C 94.7 505.874 87.35 504.261 87.1667 503.814 C 86.9833 503.366 85.045 503 82.8593 503 C 77.1483 503 65 500.86 65 499.853 C 65 499.384 62.8625 498.98 60.25 498.956 C 57.6375 498.932 53.5875 498.543 51.25 498.091 L 47 497.269 L 47 626.777 L 47 756.286 L 59 779.246 C 65.6 791.874 71 802.803 71 803.532 C 71 804.261 71.6622 805.519 72.4715 806.329 C 73.2809 807.138 80.7923 821.008 89.1636 837.15 C 97.5349 853.293 104.635 866.727 104.942 867.004 C 105.436 867.45 124.98 906.357 128.927 914.75 C 129.767 916.538 130.72 918 131.043 918 C 131.367 918 132.93 920.716 134.517 924.035 C 137.291 929.84 137.518 930.046 140.451 929.414 C 142.128 929.052 143.65 928.361 143.833 927.878 C 144.017 927.395 145.071 927 146.177 927 C 148.995 927 168.43 920.899 168.823 919.892 C 169 919.436 170.8 918.785 172.823 918.445 C 178.962 917.412 197 911.739 197 910.841 C 197 910.379 198.12 910 199.488 910 C 202.7 910 221.396 904.047 221.833 902.886 C 222.017 902.399 223.395 902 224.896 902 C 227.686 902 242.978 897.164 248.651 894.487 C 250.384 893.669 252.564 893 253.495 893 C 256.135 893 275.46 886.823 275.833 885.86 C 276.017 885.387 277.125 885 278.296 885 C 281.422 885 301 878.827 301 877.841 C 301 877.379 302.12 877 303.488 877 C 306.607 877 325.296 871.083 326.08 869.847 C 326.398 869.344 328.873 868.573 331.58 868.134 C 337.466 867.177 354.361 861.812 354.833 860.75 C 355.017 860.337 356.071 860 357.177 860 C 360.047 860 379.434 853.89 379.833 852.86 C 380.017 852.387 381.092 852 382.223 852 C 385.03 852 404.365 845.984 405.052 844.897 C 405.355 844.417 408.055 843.563 411.052 843 C 417.99 841.697 432.396 836.969 432.833 835.851 C 433.017 835.383 434.335 835 435.762 835 C 437.19 835 441.428 834.011 445.179 832.803 L 452 830.606 L 452 814.803 L 452 799 L 457.5 799 L 463 799 L 463 815.441 C 463 826.201 463.376 832.114 464.087 832.554 C 464.87 833.038 464.87 833.53 464.087 834.313 C 463.489 834.911 463 836.017 463 836.771 C 463 839.725 459.962 841.162 452.761 841.616 C 448.79 841.866 444.631 842.661 443.52 843.381 C 440.223 845.518 422.759 851 419.248 851 C 417.461 851 416 851.413 416 851.918 C 416 853.099 398.342 859 394.807 859 C 393.328 859 391.85 859.434 391.522 859.965 C 390.773 861.176 372.761 866.998 369.738 867.006 C 368.507 867.009 366.15 867.733 364.5 868.615 C 360.63 870.681 344.118 875.959 341.45 875.982 C 340.323 875.992 338.973 876.42 338.45 876.933 C 337.221 878.14 318.893 884 316.347 884 C 315.276 884 313.973 884.394 313.45 884.876 C 312.032 886.182 293.851 892 291.186 892 C 289.915 892 286.454 893.146 283.494 894.546 C 280.534 895.946 274.149 898.106 269.306 899.345 C 264.463 900.584 259.524 902.134 258.332 902.79 C 256.305 903.905 250.677 905.619 240 908.372 C 237.525 909.01 234.596 910.045 233.492 910.672 C 231.363 911.88 223.409 914.234 213.5 916.59 C 210.2 917.374 206.626 918.52 205.558 919.136 C 202.11 921.125 186.709 926 183.871 926 C 182.357 926 180.85 926.434 180.522 926.965 C 179.744 928.223 161.699 934 158.547 934 C 157.211 934 155.862 934.415 155.548 934.922 C 155.235 935.429 152.058 936.816 148.489 938.004 C 144.92 939.191 142 940.486 142 940.88 C 142 941.69 157.987 1002.72 161.025 1013.5 C 169.279 1042.81 215 1217.82 215 1220.1 C 215 1221.7 215.45 1223 216 1223 C 216.55 1223 217 1224.58 217 1226.5 C 217 1228.43 217.45 1230 218 1230 C 218.55 1230 219 1231.8 219 1234 C 219 1236.2 219.45 1238 220 1238 C 220.55 1238 221 1239.76 221 1241.92 C 221 1244.07 221.406 1245.98 221.901 1246.17 C 223.007 1246.58 240 1310.55 240 1314.31 C 240 1315.79 240.45 1317 241 1317 C 241.55 1317 242 1318.8 242 1321 C 242 1323.2 242.45 1325 243 1325 C 243.55 1325 244 1326.58 244 1328.5 C 244 1330.43 244.45 1332 245 1332 C 245.55 1332 246 1333.35 246 1335 L 246 1338 L 389 1338 L 532 1338 L 532 1114.2 C 532 945.797 531.713 890.113 530.84 889.24 C 529.961 888.361 530.337 887.09 532.396 883.978 L 535.111 879.875 L 539.445 882.415 C 543.648 884.878 543.794 884.895 544.298 882.97 C 544.809 881.013 545.721 880.989 611.158 881.243 L 677.5 881.5 L 677.803 886.757 L 678.105 892.014 L 611.312 891.757 L 544.52 891.5 L 543.989 888.5 C 543.697 886.85 543.242 885.95 542.979 886.5 C 542.716 887.05 542.615 989.087 542.754 1113.25 L 543.009 1339 L 731.504 1339 L 920 1339 L 920 1344.4 C 920 1349.64 919.922 1349.79 917.25 1349.7 C 915.737 1349.64 830.913 1349.69 728.75 1349.8 L 543 1350 L 543 1485 L 543 1620 L 598.5 1620 L 654 1620 L 654 1656 L 654 1692 L 688.5 1692 L 723 1692 L 723 1697.5 L 723 1703 L 688.5 1703 L 654 1703 L 654 1775.5 L 654 1848 L 847.5 1848 L 1041 1848 Z"
       id="path230" />
    <circle
       style="fill:#00ffff;stroke-width:1.00157"
       id="2"
       cx="87.210327"
       cy="78.601799"
       r="37.795277">
      <title
         id="title294-1-75">s e a:0</title>
    </circle>
    <circle
       style="fill:#00ffff;stroke-width:1.00157"
       id="2-3"
       cx="101.12845"
       cy="674.1897"
       r="37.795277">
      <title
         id="title294-1-75-6">s e a:0</title>
    </circle>
    <circle
       style="fill:#00ffff;stroke-width:1.00157"
       id="2-7"
       cx="289.90155"
       cy="1267.4766"
       r="37.795277">
      <title
         id="title294-1-75-5">s e a:0</title>
    </circle>
    <circle
       style="fill:#00ffff;stroke-width:1.00157"
       id="2-9"
       cx="1406.8091"
       cy="833.74792"
       r="37.795277">
      <title
         id="title294-1-75-1">s e a:180</title>
    </circle>
    <circle
       style="fill:#00ffff;stroke-width:1.00157"
       id="2-9-2"
       cx="1706.2189"
       cy="1155.1117"
       r="37.795277">
      <title
         id="title294-1-75-1-7">s e a:180</title>
    </circle>
    <circle
       style="fill:#00ffff;stroke-width:1.00157"
       id="2-9-0"
       cx="1573.1093"
       cy="1654.012"
       r="37.795277">
      <title
         id="title294-1-75-1-9">s e a:90</title>
    </circle>
    <circle
       style="fill:#00ffff;stroke-width:1.00157"
       id="2-9-0-3"
       cx="840.48981"
       cy="1777.6134"
       r="37.795277">
      <title
         id="title294-1-75-1-9-6">s e a:90</title>
    </circle>
    <circle
       style="fill:#00ffff;stroke-width:0.469587"
       id="2-3-6"
       cx="507.88956"
       cy="750.59784"
       r="17.720366">
      <title
         id="title294-1-75-6-1">s e a:0</title>
    </circle>
    <circle
       style="fill:#00ffff;stroke-width:0.469587"
       id="2-3-8"
       cx="1000.048"
       cy="804.53302"
       r="17.720366">
      <title
         id="title294-1-75-6-7">s e a:0</title>
    </circle>
    <circle
       style="fill:#00ffff;stroke-width:0.469587"
       id="2-3-8-7"
       cx="880.94116"
       cy="797.79114"
       r="17.720366">
      <title
         id="title294-1-75-6-7-5">s e a:180</title>
    </circle>
    <circle
       style="fill:#00ffff;stroke-width:0.469587"
       id="2-3-8-7-9"
       cx="397.77191"
       cy="746.10327"
       r="17.720366">
      <title
         id="title294-1-75-6-7-5-2">s e a:180</title>
    </circle>
    <circle
       style="fill:#00ffff;stroke-width:0.469587"
       id="2-3-8-7-2"
       cx="1195.563"
       cy="1186.5739"
       r="17.720366">
      <title
         id="title294-1-75-6-7-5-8">s e a:180</title>
    </circle>
    <circle
       style="fill:#00ffff;stroke-width:0.469587"
       id="2-3-8-7-2-6"
       cx="964.09125"
       cy="1267.4766"
       r="17.720366">
      <title
         id="title294-1-75-6-7-5-8-1">s e a:90</title>
    </circle>
    <circle
       style="fill:#00ffff;stroke-width:0.469587"
       id="2-3-8-7-2-6-2"
       cx="957.34937"
       cy="1402.3146"
       r="17.720366">
      <title
         id="title294-1-75-6-7-5-8-1-9">s e a:-90</title>
    </circle>
    <circle
       style="fill:#00ffff;stroke-width:0.469587"
       id="2-3-8-7-97"
       cx="543.84631"
       cy="397.77191"
       r="17.720366">
      <title
         id="title294-1-75-6-7-5-3">s e a:180</title>
    </circle>
    <circle
       style="fill:#00ffff;stroke-width:0.469587"
       id="2-3-9"
       cx="1312.4226"
       cy="1193.3157"
       r="17.720366">
      <title
         id="title294-1-75-6-2">s e a:0</title>
    </circle>
    <circle
       style="fill:#00ffff;stroke-width:0.469587"
       id="2-3-0"
       cx="631.49097"
       cy="494.40576"
       r="17.720366">
      <title
         id="title294-1-75-6-23">s e a:0</title>
    </circle>
  </g>
</svg>
