<?xml version="1.0" encoding="UTF-8" standalone="no"?>
<svg
   xmlns:dc="http://purl.org/dc/elements/1.1/"
   xmlns:cc="http://creativecommons.org/ns#"
   xmlns:rdf="http://www.w3.org/1999/02/22-rdf-syntax-ns#"
   xmlns:svg="http://www.w3.org/2000/svg"
   xmlns="http://www.w3.org/2000/svg"
   version="1.1"
   width="1170"
   height="1637"
   viewBox="0 0 1170 1637"
   id="svg12">
  <metadata
     id="metadata18">
    <rdf:RDF>
      <cc:Work
         rdf:about="">
        <dc:format>image/svg+xml</dc:format>
        <dc:type
           rdf:resource="http://purl.org/dc/dcmitype/StillImage" />
      </cc:Work>
    </rdf:RDF>
  </metadata>
  <defs
     id="defs16" />
  <path
     stroke="none"
     fill="#000000"
     fill-rule="evenodd"
     d="M 585 1637 L 0 1637 L 0 818.5 L 0 0 L 585 0 L 1170 0 L 1170 818.5 L 1170 1637 L 585 1637 L 585 1637 M 866.5 1613 L 1146 1613 L 1146 1330.5 L 1146 1048 L 1036 1048 L 926 1048 L 926 1042.5 L 926 1037 L 1035.5 1037 L 1145 1037 L 1145 787 L 1145 537 L 864.978 537 L 584.956 537 L 585.643 722 L 586.33 907 L 579.188 907 L 572.047 907 L 572.509 896.25 L 573.48 710.25 L 573.989 535 L 429.995 535 L 286 535 L 286 530.165 L 286 525.33 L 391.166 524.665 L 534.166 524 L 572 524 L 572 520.5 L 572 517 L 579.5 517 L 587 517 L 587 520.334 L 587 523.668 L 788.166 524.334 L 1067.17 525 L 1145 525 L 1145 276.161 L 1145 27.3218 L 1091.75 26.6655 L 811.723 25.3416 L 584.947 24.6739 L 585.638 210.337 L 586.329 396 L 579.191 396 L 572.054 396 L 572.51 386.75 L 573.476 201.194 L 573.986 24.8881 L 395.743 25.4693 L 122.251 26.4657 L 26.0008 27.4995 L 25 276.559 L 25 525 L 95 525 L 165 525 L 165 529.849 L 165 534.698 L 155.25 535.344 L 85.25 535.995 L 25 536 L 25 785.5 L 25 1035 L 131.5 1035 L 238 1035 L 238 1041.06 L 238 1047.12 L 131.5 1046.4 L 25 1045.69 L 25 1328.34 L 25 1611 L 300.5 1611 L 576 1611 L 576 1329.5 L 576 1048 L 518.664 1048 L 410.164 1047.34 L 359 1046.67 L 359 1040.84 L 359 1035 L 465.5 1035 L 572 1035 L 572 1030.96 L 572 1026.91 L 579.25 1027.21 L 586.5 1027.5 L 586.805 1032.25 L 587.11 1037 L 696.055 1037 L 805 1037 L 805 1042.5 L 805 1048 L 696 1048 L 587 1048 L 587 1330.5 L 587 1613 L 866.5 1613 L 866.5 1613 Z"
     id="path10" />
</svg>
