<?xml version="1.0" encoding="UTF-8" standalone="no"?>
<svg
   xmlns:dc="http://purl.org/dc/elements/1.1/"
   xmlns:cc="http://creativecommons.org/ns#"
   xmlns:rdf="http://www.w3.org/1999/02/22-rdf-syntax-ns#"
   xmlns:svg="http://www.w3.org/2000/svg"
   xmlns="http://www.w3.org/2000/svg"
   version="1.1"
   width="1167"
   height="2011"
   viewBox="0 0 1167 2011"
   id="svg12">
  <metadata
     id="metadata18">
    <rdf:RDF>
      <cc:Work
         rdf:about="">
        <dc:format>image/svg+xml</dc:format>
        <dc:type
           rdf:resource="http://purl.org/dc/dcmitype/StillImage" />
      </cc:Work>
    </rdf:RDF>
  </metadata>
  <defs
     id="defs16" />
  <path
     stroke="none"
     fill="#000000"
     fill-rule="evenodd"
     d="M 583.5 2011 L 0 2011 L 0 1005.5 L 0 0 L 583.5 0 L 1167 0 L 1167 1005.5 L 1167 2011 L 583.5 2011 L 583.5 2011 M 225 1987 L 424 1987 L 424 1789 L 424 1591 L 429 1591 L 434 1591 L 434 1595.5 L 434 1600 L 483.5 1600 L 533 1600 L 533 1605.5 L 533 1611 L 484 1611 L 435 1611 L 435 1799 L 435 1987 L 584.5 1987 L 734 1987 L 734 1799 L 734 1611 L 683 1611 L 632 1611 L 632 1605.5 L 632 1600 L 683 1600 L 734 1600 L 734 1595 L 734 1590 L 739.5 1590 L 745 1590 L 745 1788.5 L 745 1987 L 944 1987 L 1143 1987 L 1143 1738 L 1143 1489 L 944 1489 L 745 1490 L 739.5 1491 L 734 1491 L 734 1434.25 L 733.334 1219.25 L 732.669 1061 L 737.834 1061 L 743 1061 L 743 1114.83 L 743.666 1323.33 L 744.331 1478 L 943.789 1478 L 1143.25 1478 L 1142.62 1001.75 L 1141.49 287.5 L 1140.39 37.2491 L 1139.8 24.9982 L 582.649 25.2491 L 25.5 25.5 L 25.2475 224.25 L 24.9951 423 L 228.365 423 L 431.736 423 L 432.366 544.25 L 433.631 803.75 L 434.264 942 L 422.132 942 L 410 942 L 410 937.5 L 410 933 L 417.015 933 L 424.031 933 L 423.388 741.25 L 421.873 548.55 L 421 490.8 L 421 434 L 223.5 434 L 26 434 L 26 683.5 L 26 933 L 155.5 933 L 285 933 L 285 937.5 L 285 942 L 279.5 942 L 274 942 L 274 1042.51 L 274 1143.02 L 354 1142.76 L 434 1142.5 L 434 1153.75 L 434 1165 L 429 1165 L 424 1165 L 424 1159.01 L 424 1153.01 L 343.75 1152.76 L 263.5 1152.5 L 263.245 1047.75 L 262.991 943 L 208.995 943 L 155 943 L 155 978.5 L 155 1014 L 149.5 1014 L 144 1014 L 144 978.5 L 144 943 L 85 943 L 26 943 L 26 1018.5 L 26 1094 L 85 1094 L 144 1094 L 144 1091.5 L 149.25 1089 L 154.5 1089 L 154.5 1131 L 154.5 1173 L 149.25 1173 L 144 1173 L 144 1138.5 L 144 1104 L 85 1104 L 26 1104 L 26 1178.5 L 26 1253 L 85 1253 L 144 1253 L 144 1250.5 L 149.5 1248 L 155 1250 L 289.5 1252 L 424 1252 L 424 1246 L 424 1240 L 429 1240 L 434 1240 L 434 1286 L 434 1332 L 429 1332 L 424 1332 L 424 1298 L 424 1264 L 225 1264 L 26 1264 L 26 1371 L 26 1478 L 225 1478 L 424 1478 L 424 1442.5 L 424 1407 L 429 1407 L 434 1407 L 434 1449.5 L 434 1492 L 429 1492 L 424 1490.5 L 225 1489 L 26 1489 L 26 1738 L 26 1987 L 225 1987 L 225 1987 Z"
     id="path10" />
</svg>
