<svg version="1.1" xmlns="http://www.w3.org/2000/svg" xmlns:xlink="http://www.w3.org/1999/xlink" width="1167" height="2011" viewBox="0 0 1167 2011"><path stroke="none" fill="#000000" fill-rule="evenodd" d="M583.500000,2011.000000L0.000000,2011.000000L0.000000,1005.500000L0.000000,0.000000L583.500000,0.000000L1167.000000,0.000000L1167.000000,1005.500000L1167.000000,2011.000000L583.500000,2011.000000zM225.000000,1987.000000L424.000000,1987.000000L424.000000,1789.000000L424.000000,1591.000000L429.000000,1591.000000L434.000000,1591.000000L434.000000,1595.500000L434.000000,1600.000000L483.500000,1600.000000L533.000000,1600.000000L533.000000,1605.500000L533.000000,1611.000000L484.000000,1611.000000L435.000000,1611.000000L435.000000,1799.000000L435.000000,1987.000000L584.500000,1987.000000L734.000000,1987.000000L734.000000,1799.000000L734.000000,1611.000000L683.000000,1611.000000L632.000000,1611.000000L632.000000,1605.500000L632.000000,1600.000000L683.000000,1600.000000L734.000000,1600.000000L734.000000,1595.000000L734.000000,1590.000000L739.500000,1590.000000L745.000000,1590.000000L745.000000,1788.500000L745.000000,1987.000000L944.000000,1987.000000L1143.000000,1987.000000L1143.000000,1738.000000L1143.000000,1489.000000L944.000000,1489.000000C812.000000,1489.000000 745.000000,1489.336683 745.000000,1490.000000C745.000000,1490.550000 742.525000,1491.000000 739.500000,1491.000000L734.000000,1491.000000L733.999651,1434.250000C733.999459,1403.037500 733.699931,1306.287500 733.334033,1219.250000L732.668764,1061.000000L737.834382,1061.000000L743.000000,1061.000000L743.000000,1114.834055C743.000000,1144.442786 743.299517,1238.267786 743.665593,1323.334055L744.331187,1478.000000L943.789089,1478.000000L1143.246991,1478.000000L1142.624411,1001.750000C1142.281993,739.812500 1141.772211,418.400000 1141.491564,287.500000C1141.210917,156.600000 1140.715170,43.987099 1140.389904,37.249109L1139.798511,24.998218L582.649255,25.249109L25.500000,25.500000L25.247531,224.250000L24.995062,423.000000L228.365333,423.000000L431.735604,423.000000L432.366157,544.250000C432.712961,610.937500 433.281942,727.712500 433.630558,803.750000L434.264405,942.000000L422.132203,942.000000L410.000000,942.000000L410.000000,937.500000L410.000000,933.000000L417.015475,933.000000L424.030951,933.000000L423.387979,741.250000C423.030108,634.524286 422.358128,549.078758 421.872503,548.550000C421.392626,548.027500 421.000000,522.040000 421.000000,490.800000L421.000000,434.000000L223.500000,434.000000L26.000000,434.000000L26.000000,683.500000L26.000000,933.000000L155.500000,933.000000L285.000000,933.000000L285.000000,937.500000L285.000000,942.000000L279.500000,942.000000L274.000000,942.000000L274.000000,1042.511794L274.000000,1143.023588L354.000101,1142.761794L434.000202,1142.500000L434.000101,1153.750000L434.000000,1165.000000L429.000000,1165.000000L424.000000,1165.000000L424.000000,1159.005950L424.000000,1153.011899L343.750000,1152.755950L263.500000,1152.500000L263.245393,1047.750000L262.990786,943.000000L208.995393,943.000000L155.000000,943.000000L155.000000,978.500000L155.000000,1014.000000L149.500000,1014.000000L144.000000,1014.000000L144.000000,978.500000L144.000000,943.000000L85.000000,943.000000L26.000000,943.000000L26.000000,1018.500000L26.000000,1094.000000L85.000000,1094.000000L144.000000,1094.000000L144.000000,1091.500000C144.000000,1089.150828 144.316738,1088.999984 149.250000,1088.999731L154.500000,1088.999462L154.500000,1130.999373L154.500000,1172.999284L149.250000,1172.999642L144.000000,1173.000000L144.000000,1138.500000L144.000000,1104.000000L85.000000,1104.000000L26.000000,1104.000000L26.000000,1178.500000L26.000000,1253.000000L85.000000,1253.000000L144.000000,1253.000000L144.000000,1250.500000C144.000000,1248.136364 144.300000,1248.000000 149.500000,1248.000000C154.333333,1248.000000 155.000000,1248.242424 155.000000,1250.000000C155.000000,1251.990087 155.666667,1252.000000 289.500000,1252.000000L424.000000,1252.000000L424.000000,1246.000000L424.000000,1240.000000L429.000000,1240.000000L434.000000,1240.000000L434.000000,1286.000000L434.000000,1332.000000L429.000000,1332.000000L424.000000,1332.000000L424.000000,1298.000000L424.000000,1264.000000L225.000000,1264.000000L26.000000,1264.000000L26.000000,1371.000000L26.000000,1478.000000L225.000000,1478.000000L424.000000,1478.000000L424.000000,1442.500000L424.000000,1407.000000L429.000000,1407.000000L434.000000,1407.000000L434.000000,1449.500000L434.000000,1492.000000L429.000000,1492.000000C425.222222,1492.000000 424.000000,1491.633333 424.000000,1490.500000C424.000000,1489.171692 401.222222,1489.000000 225.000000,1489.000000L26.000000,1489.000000L26.000000,1738.000000L26.000000,1987.000000L225.000000,1987.000000z"/></svg>