<svg version="1.1" xmlns="http://www.w3.org/2000/svg" xmlns:xlink="http://www.w3.org/1999/xlink" width="422" height="318" viewBox="0 0 422 318"><path stroke="none" fill="#000000" fill-rule="evenodd" d="M211.000000,318.000000L0.000000,318.000000L0.000000,159.000000L0.000000,0.000000L211.000000,0.000000L422.000000,0.000000L422.000000,159.000000L422.000000,318.000000L211.000000,318.000000zM292.011743,294.000000L398.000000,294.000000L398.000000,159.497369L398.000000,24.994737L211.750000,25.247369L25.500000,25.500000L25.245557,134.250000L24.991113,243.000000L54.843154,243.000000L84.695195,243.000000L85.375631,230.271966C85.749871,223.271548 86.407784,217.192216 86.837659,216.762341C87.267535,216.332465 109.642420,216.097580 136.559626,216.240374L185.500000,216.500000L185.761743,255.250000L186.023487,294.000000L292.011743,294.000000z"/></svg>