<svg version="1.1" xmlns="http://www.w3.org/2000/svg" xmlns:xlink="http://www.w3.org/1999/xlink" width="1366" height="1059" viewBox="0 0 1366 1059"><path stroke="none" fill="#000000" fill-rule="evenodd" d="M683.000000,1059.000000L0.000000,1059.000000L0.000000,529.500000L0.000000,0.000000L683.000000,0.000000L1366.000000,0.000000L1366.000000,529.500000L1366.000000,1059.000000L683.000000,1059.000000zM913.250000,1034.801832L1033.000000,1035.000000L1033.000000,1028.500000L1033.000000,1022.000000L1038.500000,1022.000000L1044.000000,1022.000000L1044.000000,1028.500000L1044.000000,1035.000000L1089.750000,1034.976880C1114.912500,1034.964164 1181.400000,1034.300119 1237.500000,1033.501224C1293.600000,1032.702329 1340.062500,1032.037733 1340.750000,1032.024344C1341.746587,1032.004935 1342.000000,981.541748 1342.000000,783.106989C1342.000000,584.908930 1341.745398,534.118623 1340.750000,533.745821C1340.062500,533.488335 1275.375000,534.770886 1197.000000,536.595935C1118.625000,538.420984 1052.025000,539.933478 1049.000000,539.957033L1043.500000,539.999859L1043.773312,743.499929L1044.046624,947.000000L1038.523312,947.000000L1033.000000,947.000000L1033.000000,743.381504L1033.000000,539.763008L945.500000,540.508547L858.000000,541.254086L858.000000,534.127043L858.000000,527.000000L883.000000,527.000000C899.000000,527.000000 908.000000,526.640000 908.000000,526.000000C908.000000,525.344000 929.500000,525.000000 970.500000,525.000000L1033.000000,525.000000L1033.000000,428.000000L1033.000000,331.000000L1038.500000,331.000000L1044.000000,331.000000L1044.000000,430.152052L1044.000000,529.304104L1066.250000,528.656759C1078.487500,528.300719 1107.512500,527.711623 1130.750000,527.347658C1153.987500,526.983692 1173.000000,526.380078 1173.000000,526.006292C1173.000000,525.632506 1206.187500,525.026376 1246.750000,524.659336C1287.312500,524.292297 1325.337500,523.700991 1331.250000,523.345325L1342.000000,522.698659L1342.000000,273.849330L1342.000000,25.000000L1193.000000,25.000000L1044.000000,25.000000L1044.000000,140.500000L1044.000000,256.000000L1038.500000,256.000000L1033.000000,256.000000L1033.000000,140.500000L1033.000000,25.000000L783.503983,25.000000L534.007967,25.000000L533.753983,146.750000L533.500000,268.500000L528.250000,268.802260L523.000000,269.104519L523.000000,147.050279L523.000000,24.996040L274.250000,25.248020L25.500000,25.500000L25.246064,148.750000L24.992127,272.000000L153.889075,272.000000C270.503742,272.000000 282.843861,272.150725 283.393011,273.581787C283.726855,274.451771 284.000000,331.998230 284.000000,401.462807L284.000000,527.762040L357.000000,528.506826L430.000000,529.251611L430.000000,535.631900L430.000000,542.012189L351.750000,541.756095L273.500000,541.500000L273.246241,412.250000L272.992483,283.000000L148.996241,283.000000L25.000000,283.000000L25.000000,531.500000L25.000000,780.000000L274.000000,780.000000L523.000000,780.000000L523.000000,661.037526L523.000000,542.075052L513.750000,541.787526L504.500000,541.500000L504.500000,536.000000L504.500000,530.500000L513.750000,530.514289L523.000000,530.528577L523.000000,437.264289L523.000000,344.000000L528.500000,344.000000L534.000000,344.000000L534.000000,437.124010L534.000000,530.248021L596.750000,529.622018C631.262500,529.277717 687.287500,528.717004 721.250000,528.375989L783.000000,527.755963L783.000000,534.377982L783.000000,541.000000L658.500000,541.000000L534.000000,541.000000L534.000000,787.000000L534.000000,1033.000000L569.750000,1033.142719C589.412500,1033.221214 647.800000,1033.582038 699.500000,1033.944550C751.200000,1034.307062 847.387500,1034.692839 913.250000,1034.801832z"/></svg>