<?xml version="1.0" encoding="UTF-8" standalone="no"?>
<svg
   xmlns:dc="http://purl.org/dc/elements/1.1/"
   xmlns:cc="http://creativecommons.org/ns#"
   xmlns:rdf="http://www.w3.org/1999/02/22-rdf-syntax-ns#"
   xmlns:svg="http://www.w3.org/2000/svg"
   xmlns="http://www.w3.org/2000/svg"
   version="1.1"
   width="1246"
   height="2419"
   viewBox="0 0 1246 2419"
   id="svg12">
  <metadata
     id="metadata18">
    <rdf:RDF>
      <cc:Work
         rdf:about="">
        <dc:format>image/svg+xml</dc:format>
        <dc:type
           rdf:resource="http://purl.org/dc/dcmitype/StillImage" />
      </cc:Work>
    </rdf:RDF>
  </metadata>
  <defs
     id="defs16" />
  <path
     stroke="none"
     fill="#000000"
     fill-rule="evenodd"
     d="M 623 2419 L 0 2419 L 0 1209.5 L 0 0 L 623 0 L 1246 0 L 1246 1209.5 L 1246 2419 L 623 2419 L 623 2419 M 1143.75 2394.84 L 1222 2395 L 1222 2243.5 L 1222 2092 L 1158 2092 L 1094 2092 L 1094 2087 L 1094 2082 L 1158 2082 L 1222 2082 L 1222 1832 L 1222 1582 L 1027.5 1582 L 833.007 1582 L 832.754 1715.25 L 832.5 1848.5 L 827.75 1848.8 L 823 1846.05 L 823 1843 L 693.5 1843 L 564 1843 L 564 1838 L 564 1833 L 693.5 1833 L 823 1833 L 823 1707.5 L 823 1582 L 810 1582 L 797 1582 L 797 1577 L 797 1572 L 1009.5 1572 L 1222 1572 L 1222 798.5 L 1222 25 L 777.5 25 L 333 25 L 333 179 L 333 333 L 283.5 333 L 234 333 L 234 328 L 234 323 L 278.5 323 L 323 323 L 323 173.997 L 323 24.9934 L 174.25 25.2467 L 25.5 25.5 L 25.2467 174.25 L 24.9934 323 L 68.9967 323 L 113 323 L 113 328 L 113 333 L 71.1195 333 L 29.239 333 L 28.6535 389.25 L 26.5311 1417.41 L 25.2855 2389.62 L 249.538 2391.06 L 769.5 2393.44 L 1143.75 2394.84 L 1143.75 2394.84 Z"
     id="path10" />
</svg>
