<?xml version="1.0" encoding="UTF-8" standalone="no"?>
<svg
   xmlns:dc="http://purl.org/dc/elements/1.1/"
   xmlns:cc="http://creativecommons.org/ns#"
   xmlns:rdf="http://www.w3.org/1999/02/22-rdf-syntax-ns#"
   xmlns:svg="http://www.w3.org/2000/svg"
   xmlns="http://www.w3.org/2000/svg"
   version="1.1"
   width="3095"
   height="2008"
   viewBox="0 0 3095 2008"
   id="svg12">
  <metadata
     id="metadata18">
    <rdf:RDF>
      <cc:Work
         rdf:about="">
        <dc:format>image/svg+xml</dc:format>
        <dc:type
           rdf:resource="http://purl.org/dc/dcmitype/StillImage" />
      </cc:Work>
    </rdf:RDF>
  </metadata>
  <defs
     id="defs16" />
  <path
     stroke="none"
     fill="#000000"
     fill-rule="evenodd"
     d="M 1547.5 2008 L 0 2008 L 0 1004 L 0 0 L 1547.5 0 L 3095 0 L 3095 1004 L 3095 2008 L 1547.5 2008 L 1547.5 2008 M 278.5 1984 L 530 1984 L 530 1867.5 L 530 1751 L 535 1751 L 540 1751 L 540 1867.5 L 540 1984 L 643 1984 L 746 1984 L 746 1943 L 746 1902 L 752 1902 L 758 1902 L 758 1943 L 758 1984 L 1533.5 1984 L 2309 1984 L 2309 1944.5 L 2309 1905 L 2314.5 1905 L 2320 1905 L 2320 1944.5 L 2320 1984 L 2695.5 1984 L 3071 1984 L 3071 1590 L 3071 1196 L 3009 1196 L 2947 1196 L 2947 1190.5 L 2947 1185 L 3009 1185 L 3071 1185 L 3071 790.25 L 3071 395.5 L 2775 395.779 L 2479 396.057 L 2479 390.529 L 2479 385 L 2775 385 L 3071 385 L 3071 204.999 L 3071 24.9972 L 2712.75 25.2486 L 2354.5 25.5 L 2354.25 205.25 L 2353.99 385 L 2369 385 L 2384 385 L 2384 390.486 L 2384 395.972 L 2352.75 396.236 L 2321.5 396.5 L 2321.25 790.75 L 2321 1185 L 2386.5 1185 L 2452 1185 L 2452 1190.39 L 2450.75 1195.73 L 2385.25 1195.84 L 2321 1196 L 2321 1354.33 L 2320.34 1586.33 L 2319.67 1660 L 2314.34 1660 L 2309 1660 L 2309 1616.5 L 2309 1573 L 1533.5 1573 L 758 1573 L 758 1615 L 758 1657 L 752.141 1657 L 746.282 1657 L 746.786 1437 L 747.29 1217 L 740.645 1217 L 734 1217 L 734 1211.5 L 734 1206 L 740.5 1206 L 747 1206 L 747 956.5 L 747 707 L 686 707 L 625 707 L 625 701.5 L 625 696 L 686 696 L 747 696 L 747 549.499 L 747 402.997 L 386.25 403.249 L 25.5 403.5 L 25.2467 549.75 L 24.9933 696 L 277.497 696 L 530 696 L 530.002 701.25 L 530.004 706.5 L 524.252 706.521 L 271.75 706.771 L 25 707 L 25 956.5 L 25 1206 L 287 1206 L 549 1206 L 549 1211.5 L 549 1217 L 543.5 1217 L 538 1217 L 538 1271 L 538 1325 L 533 1325 L 528 1325 L 528 1271 L 528 1217 L 277.5 1217 L 27 1217 L 27 1344.5 L 27 1472 L 60 1472 L 93 1472 L 93 1477 L 93 1482 L 60 1482 L 27 1482 L 27 1733 L 27 1984 L 278.5 1984 L 278.5 1984 Z"
     id="path10" />
</svg>
