<svg version="1.1" xmlns="http://www.w3.org/2000/svg" xmlns:xlink="http://www.w3.org/1999/xlink" width="1107" height="747" viewBox="0 0 1107 747"><path stroke="none" fill="#000000" fill-rule="evenodd" d="M553.500000,747.000000L0.000000,747.000000L0.000000,373.500000L0.000000,0.000000L553.500000,0.000000L1107.000000,0.000000L1107.000000,373.500000L1107.000000,747.000000L553.500000,747.000000zM174.500000,723.000000L324.000000,723.000000L324.000000,710.000000L324.000000,697.000000L329.500000,697.000000L335.000000,697.000000L335.000000,710.000000L335.000000,723.000000L584.500000,723.000000L834.000000,723.000000L834.000000,474.000000L834.000000,225.000000L755.500000,225.000000L677.000000,225.000000L677.000000,219.500000L677.000000,214.000000L759.418213,214.000000C804.748229,214.000000 842.548229,214.273145 843.418213,214.606989C844.843407,215.153887 845.000000,223.618156 845.000000,300.106989L845.000000,385.000000L848.000000,385.000000C850.969697,385.000000 851.000000,385.055556 851.000000,390.500000C851.000000,395.944444 850.969697,396.000000 848.000000,396.000000L845.000000,396.000000L845.000000,559.500000L845.000000,723.000000L964.000000,723.000000L1083.000000,723.000000L1083.000000,559.500000L1083.000000,396.000000L1005.000000,396.000000L927.000000,396.000000L927.000000,390.500000L927.000000,385.000000L1005.000000,385.000000L1083.000000,385.000000L1083.000000,334.500000L1083.000000,284.000000L1012.500000,284.000000L942.000000,284.000000L942.000000,286.500000C942.000000,288.833333 941.666667,289.000000 937.000000,289.000000L932.000000,289.000000L932.000000,252.500000L932.000000,216.000000L937.000000,216.000000L942.000000,216.000000L942.000000,245.000000L942.000000,274.000000L1012.500000,274.000000L1083.000000,274.000000L1083.000000,149.500000L1083.000000,25.000000L1012.500000,25.000000L942.000000,25.000000L942.000000,71.500000L942.000000,118.000000L937.000000,118.000000L932.000000,118.000000L932.000000,71.500000L932.000000,25.000000L874.437897,25.000000C823.977831,25.000000 816.262024,25.200754 811.901176,26.627115C807.453147,28.081992 800.499734,28.198905 746.213279,27.731578C706.112583,27.386370 684.313967,26.833953 682.006602,26.104463C679.513841,25.316359 629.315799,25.000000 506.756602,25.000000L335.000000,25.000000L335.000000,54.000000L335.000000,83.000000L329.500000,83.000000L324.000000,83.000000L324.000000,53.996732L324.000000,24.993465L174.750000,25.246732L25.500000,25.500000L25.248273,311.250000L24.996546,597.000000L174.498273,597.000000L324.000000,597.000000L324.000000,389.500000L324.000000,182.000000L329.500000,182.000000L335.000000,182.000000L335.000000,198.000000L335.000000,214.000000L413.000000,214.000000L491.000000,214.000000L491.000000,219.500000L491.000000,225.000000L413.000000,225.000000L335.000000,225.000000L335.000000,423.500000L335.000000,622.000000L329.500000,622.000000L324.000000,622.000000L324.000000,615.000000L324.000000,608.000000L174.500000,608.000000L25.000000,608.000000L25.000000,665.500000L25.000000,723.000000L174.500000,723.000000z"/></svg>