<svg version="1.1" xmlns="http://www.w3.org/2000/svg" xmlns:xlink="http://www.w3.org/1999/xlink" width="1170" height="1637" viewBox="0 0 1170 1637"><path stroke="none" fill="#000000" fill-rule="evenodd" d="M585.000000,1637.000000L0.000000,1637.000000L0.000000,818.500000L0.000000,0.000000L585.000000,0.000000L1170.000000,0.000000L1170.000000,818.500000L1170.000000,1637.000000L585.000000,1637.000000zM866.500000,1613.000000L1146.000000,1613.000000L1146.000000,1330.500000L1146.000000,1048.000000L1036.000000,1048.000000L926.000000,1048.000000L926.000000,1042.500000L926.000000,1037.000000L1035.500000,1037.000000L1145.000000,1037.000000L1145.000000,787.000000L1145.000000,537.000000L864.978102,537.000000L584.956203,537.000000L585.643002,722.000000L586.329801,907.000000L579.188315,907.000000L572.046828,907.000000L572.509088,896.250000C572.763332,890.337500 573.200365,806.637500 573.480273,710.250000L573.989197,535.000000L429.994598,535.000000L286.000000,535.000000L286.000000,530.165091L286.000000,525.330182L391.165603,524.665091C449.006684,524.299291 513.356684,524.000000 534.165603,524.000000L572.000000,524.000000L572.000000,520.500000L572.000000,517.000000L579.500000,517.000000L587.000000,517.000000L587.000000,520.334159L587.000000,523.668319L788.166112,524.334159C898.807474,524.700372 1024.357474,525.000000 1067.166112,525.000000L1145.000000,525.000000L1145.000000,276.160891L1145.000000,27.321782L1091.750000,26.665491C1062.462500,26.304531 936.450540,25.708767 811.723422,25.341571L584.946844,24.673942L585.637977,210.336971L586.329110,396.000000L579.191346,396.000000L572.053583,396.000000L572.510364,386.750000C572.761594,381.662500 573.196353,298.162330 573.476495,201.194067L573.985845,24.888133L395.742922,25.469272C297.709315,25.788899 174.637858,26.237290 122.250797,26.465696C69.863735,26.694103 26.551235,27.159318 26.000797,27.499508C25.337413,27.909501 25.000000,111.878552 25.000000,276.559017L25.000000,525.000000L95.000000,525.000000L165.000000,525.000000L165.000000,529.849177L165.000000,534.698354L155.250000,535.344003C149.887500,535.699111 118.387500,535.991981 85.250000,535.994826L25.000000,536.000000L25.000000,785.500000L25.000000,1035.000000L131.500000,1035.000000L238.000000,1035.000000L238.000000,1041.061500L238.000000,1047.123001L131.500000,1046.404007L25.000000,1045.685014L25.000000,1328.342507L25.000000,1611.000000L300.500000,1611.000000L576.000000,1611.000000L576.000000,1329.500000L576.000000,1048.000000L518.664464,1048.000000C487.129919,1048.000000 438.304919,1047.701448 410.164464,1047.336551L359.000000,1046.673103L359.000000,1040.836551L359.000000,1035.000000L465.500000,1035.000000L572.000000,1035.000000L572.000000,1030.956190L572.000000,1026.912381L579.250000,1027.206190L586.500000,1027.500000L586.804791,1032.250000L587.109582,1037.000000L696.054791,1037.000000L805.000000,1037.000000L805.000000,1042.500000L805.000000,1048.000000L696.000000,1048.000000L587.000000,1048.000000L587.000000,1330.500000L587.000000,1613.000000L866.500000,1613.000000z"/></svg>