<svg version="1.1" xmlns="http://www.w3.org/2000/svg" xmlns:xlink="http://www.w3.org/1999/xlink" width="1607" height="1533" viewBox="0 0 1607 1533"><path stroke="none" fill="#000000" fill-rule="evenodd" d="M803.500000,1533.000000L0.000000,1533.000000L0.000000,766.500000L0.000000,0.000000L803.500000,0.000000L1607.000000,0.000000L1607.000000,766.500000L1607.000000,1533.000000L803.500000,1533.000000zM1349.750000,1508.942242L1583.000000,1509.000000L1583.000000,1502.042041C1583.000000,1495.164348 1582.921226,1494.959584 1576.171448,1484.292041C1572.415745,1478.356418 1557.489290,1455.275000 1543.001547,1433.000000C1528.513805,1410.725000 1501.201082,1368.057435 1482.306606,1338.183189C1463.412130,1308.308942 1411.963586,1228.098905 1367.976507,1159.938662C1323.989428,1091.778418 1288.000000,1035.613584 1288.000000,1035.127918C1288.000000,1034.642252 1287.256047,1033.627464 1286.346772,1032.872832C1285.437496,1032.118200 1284.190149,1030.375600 1283.574889,1029.000387C1282.959630,1027.625174 1280.666082,1023.853715 1278.478118,1020.619367C1276.290153,1017.385020 1272.368827,1011.535020 1269.764059,1007.619367C1267.159292,1003.703715 1264.071009,998.700000 1262.901208,996.500000C1261.731407,994.300000 1259.983314,991.600000 1259.016557,990.500000C1258.049800,989.400000 1256.638083,987.329256 1255.879408,985.898348C1255.120734,984.467439 1252.700000,980.468682 1250.500000,977.012221C1248.300000,973.555761 1245.150000,968.633178 1243.500000,966.073149C1241.850000,963.513119 1239.934661,960.536876 1239.243691,959.459275C1238.552721,958.381674 1236.302721,954.851243 1234.243691,951.613874C1232.184661,948.376504 1229.037500,943.549853 1227.250000,940.887981C1225.462500,938.226109 1224.000000,935.657110 1224.000000,935.179095C1224.000000,934.701079 1223.111488,933.505883 1222.025529,932.523104C1220.939571,931.540325 1219.751340,929.783080 1219.385016,928.618116C1219.018693,927.453152 1217.862700,925.375000 1216.816143,924.000000C1215.769586,922.625000 1213.357817,919.148348 1211.456656,916.274107C1209.555495,913.399866 1208.000000,910.657110 1208.000000,910.179095C1208.000000,909.701079 1207.111488,908.505883 1206.025529,907.523104C1204.939571,906.540325 1203.752996,904.783080 1203.388697,903.618116C1203.024398,902.453152 1201.775409,900.319211 1200.613167,898.876024C1199.450925,897.432837 1197.604739,894.732837 1196.510532,892.876024C1195.416324,891.019211 1193.616324,888.094632 1192.510532,886.376960C1191.404739,884.659289 1188.882884,880.834289 1186.906410,877.876960C1184.929935,874.919632 1182.454935,871.078779 1181.406410,869.341730C1180.357884,867.604682 1177.875270,863.779682 1175.889488,860.841730C1173.903706,857.903779 1167.041206,847.514444 1160.639488,837.754319C1154.237770,827.994195 1149.000000,819.753844 1149.000000,819.442428C1149.000000,819.131012 1148.216822,817.837935 1147.259605,816.568923C1145.592900,814.359323 1145.370611,814.325634 1142.009605,815.773270C1140.079322,816.604672 1134.450000,819.231860 1129.500000,821.611465C1124.550000,823.991071 1116.450000,827.844521 1111.500000,830.174688C1106.550000,832.504855 1099.125000,836.069508 1095.000000,838.096141C1090.875000,840.122773 1086.042660,842.089840 1084.261468,842.467400C1082.480275,842.844960 1080.759993,843.579322 1080.438620,844.099315C1080.117247,844.619307 1077.199919,846.384686 1073.955669,848.022378C1070.711420,849.660070 1067.170759,851.000000 1066.087534,851.000000C1065.004309,851.000000 1063.833695,851.460070 1063.486170,852.022378C1063.138644,852.584686 1060.199919,854.384686 1056.955669,856.022378C1053.711420,857.660070 1050.389185,859.000000 1049.572926,859.000000C1048.756667,859.000000 1046.475648,860.094727 1044.503996,861.432726C1042.532343,862.770726 1038.799859,864.602286 1036.209587,865.502860C1033.619314,866.403434 1030.375000,867.767484 1029.000000,868.534083C1027.625000,869.300681 1023.832754,871.294121 1020.572787,872.963949C1017.312819,874.633777 1013.915319,876.000000 1013.022787,876.000000C1012.130254,876.000000 1010.910747,876.489253 1010.312771,877.087229C1009.529799,877.870201 1007.924279,876.350901 1004.575623,871.658179C1002.018167,868.074226 999.518600,864.997473 999.021030,864.820951C998.523460,864.644428 995.727677,861.512961 992.808179,857.862135C989.888680,854.211309 984.008616,846.918996 979.741369,841.656995C975.474122,836.394994 971.299033,831.707099 970.463393,831.239451C969.627752,830.771804 967.044136,827.661598 964.722023,824.327883C962.399910,820.994168 955.372530,812.131602 949.105621,804.633292C942.838713,797.134981 937.386012,791.000000 936.988508,791.000000C936.591003,791.000000 935.004049,789.093407 933.461943,786.763127C931.919836,784.432847 926.612497,777.682847 921.667855,771.763127C916.723213,765.843407 912.359937,761.000000 911.971685,761.000000C911.583433,761.000000 910.004049,759.093407 908.461943,756.763127C906.919836,754.432847 901.612497,747.682847 896.667855,741.763127C891.723213,735.843407 887.359937,731.000000 886.971685,731.000000C886.583433,731.000000 885.007395,729.087500 883.469378,726.750000C881.931362,724.412500 877.289806,718.450000 873.154810,713.500000C869.019814,708.550000 864.137639,702.925000 862.305532,701.000000C860.473424,699.075000 857.067681,694.936570 854.737214,691.803489C852.406746,688.670409 831.941935,663.807909 809.259854,636.553489L768.019709,587.000000L774.515496,587.000000L781.011282,587.000000L805.286830,616.250000C818.638381,632.337500 830.624612,647.075000 831.922899,649.000000C833.221186,650.925000 835.500779,653.625000 836.988662,655.000000C838.476545,656.375000 843.054498,661.550000 847.161891,666.500000C851.269284,671.450000 856.084774,677.637500 857.862980,680.250000C859.641186,682.862500 861.464664,685.000000 861.915154,685.000000C862.365645,685.000000 863.965168,686.912500 865.469651,689.250000C866.974134,691.587500 869.440061,694.625000 870.949489,696.000000C872.458917,697.375000 877.048438,702.550000 881.148425,707.500000C885.248412,712.450000 889.656054,718.075000 890.943184,720.000000C892.230314,721.925000 894.500779,724.625000 895.988662,726.000000C897.476545,727.375000 902.048438,732.550000 906.148425,737.500000C910.248412,742.450000 914.656054,748.075000 915.943184,750.000000C917.230314,751.925000 919.503047,754.625000 920.993701,756.000000C922.484355,757.375000 930.652081,766.825000 939.144202,777.000000C947.636323,787.175000 955.657767,797.075000 956.969633,799.000000C958.281499,800.925000 960.737504,803.861681 962.427422,805.525959C964.117340,807.190236 967.503889,810.790236 969.953087,813.525959C972.402286,816.261681 974.877286,819.211691 975.453087,820.081536C976.028889,820.951381 978.075000,823.852021 980.000000,826.527403C981.925000,829.202785 985.974559,833.891094 988.999019,836.945867C992.023480,840.000640 996.523480,845.151951 998.999019,848.393224C1001.474559,851.634497 1004.952117,856.335798 1006.726926,858.840559C1008.501735,861.345320 1010.629201,863.772614 1011.454627,864.234546C1012.384500,864.754929 1014.010000,864.484821 1015.727701,863.524492C1017.252466,862.672030 1019.175000,861.574839 1020.000000,861.086290C1020.825000,860.597742 1024.569658,858.964165 1028.321461,857.456120C1032.073265,855.948075 1035.753622,854.103521 1036.500033,853.357110C1037.246443,852.610700 1038.349166,852.000000 1038.950529,852.000000C1039.551891,852.000000 1042.966207,850.674969 1046.537899,849.055487C1050.109590,847.436005 1053.731852,845.411005 1054.587370,844.555487C1055.442888,843.699969 1056.862324,843.000000 1057.741672,843.000000C1058.621020,843.000000 1062.413878,841.583383 1066.170244,839.851962C1069.926610,838.120540 1073.000000,836.320540 1073.000000,835.851962C1073.000000,835.383383 1073.751610,835.000000 1074.670244,835.000000C1075.588878,835.000000 1079.413878,833.583383 1083.170244,831.851962C1086.926610,830.120540 1090.000000,828.320540 1090.000000,827.851962C1090.000000,827.383383 1090.787500,826.999645 1091.750000,826.999211C1092.712500,826.998777 1096.337230,825.656190 1099.804955,824.015685C1103.272680,822.375179 1106.792323,820.350534 1107.626384,819.516474C1108.460444,818.682413 1109.944904,818.000000 1110.925184,818.000000C1111.905463,818.000000 1118.060820,815.467590 1124.603755,812.372422C1131.146690,809.277253 1136.633249,806.631505 1136.796108,806.492980C1136.958967,806.354456 1111.127470,764.899366 1079.392781,714.370559C1047.658092,663.841751 1020.862343,621.694970 1019.846673,620.711045C1018.831003,619.727120 1018.000000,618.440611 1018.000000,617.852137C1018.000000,617.263663 1014.800173,611.656193 1010.889273,605.391092C1006.978373,599.125991 1003.422394,594.000000 1002.987098,594.000000C1002.551802,594.000000 1001.707313,592.599156 1001.110457,590.887013C1000.513601,589.174869 998.553098,585.687369 996.753785,583.137013C994.954471,580.586656 992.586287,576.776313 991.491153,574.669584C990.396019,572.562854 988.262500,569.444306 986.750000,567.739475C985.237500,566.034645 984.000000,564.235179 984.000000,563.740662C984.000000,563.246145 981.223014,558.489694 977.828921,553.170770C974.434827,547.851847 971.132334,543.050000 970.490048,542.500000C969.847762,541.950000 968.559818,539.925000 967.627950,538.000000C966.696083,536.075000 965.355686,533.738784 964.649290,532.808408C963.483184,531.272562 956.627213,530.973333 890.184971,529.558408C849.935992,528.701284 811.378882,528.000000 804.502505,528.000000L792.000000,528.000000L792.000000,522.134053L792.000000,516.268106L847.250000,516.701723C877.637500,516.940212 903.400000,517.532164 904.500000,518.017172C905.600000,518.502181 917.637500,519.040901 931.250000,519.214329C944.862500,519.387757 956.000000,519.425966 956.000000,519.299237C956.000000,519.172508 953.496646,515.228336 950.436990,510.534410C947.377335,505.840485 944.452335,502.000000 943.936990,502.000000C943.421646,502.000000 943.000000,501.160686 943.000000,500.134859C943.000000,499.109031 942.212500,497.191364 941.250000,495.873377C940.287500,494.555389 938.928860,492.582203 938.230801,491.488518C937.532741,490.394833 935.732741,487.498974 934.230801,485.053275C932.728860,482.607577 930.600000,479.646028 929.500000,478.472056C928.400000,477.298085 926.229528,473.789033 924.676730,470.674165C923.123931,467.559296 921.054335,464.445845 920.077627,463.755384C919.100918,463.064923 917.345096,460.475000 916.175799,458.000000C915.006502,455.525000 913.476099,452.603560 912.774903,451.507910C912.073706,450.412261 910.487500,448.240234 909.250000,446.681185C908.012500,445.122135 907.000000,443.238737 907.000000,442.495855C907.000000,441.752973 905.971963,440.324999 904.715473,439.322580C903.458983,438.320161 901.458412,435.620512 900.269760,433.323359C899.081109,431.026207 897.521646,428.106687 896.804288,426.835538C896.086929,425.564388 894.748132,423.955817 893.829182,423.260936C892.910233,422.566054 891.863111,420.653235 891.502246,419.010225C891.141380,417.367216 890.397672,415.745775 889.849560,415.407023C889.301448,415.068271 886.817422,411.575611 884.329502,407.645555C881.841582,403.715500 879.261215,400.050000 878.595353,399.500000C877.929491,398.950000 876.380693,396.409386 875.153579,393.854191C873.926465,391.298996 871.814909,388.013311 870.461232,386.552669C869.107554,385.092027 868.000000,383.420370 868.000000,382.837877C868.000000,382.255383 865.975000,378.882008 863.500000,375.341488C861.025000,371.800968 859.000000,368.704206 859.000000,368.459795C859.000000,368.215384 856.215669,363.624443 852.812598,358.257705C849.409527,352.890967 845.809527,347.694970 844.812598,346.711045C843.815669,345.727120 843.000000,344.519520 843.000000,344.027490C843.000000,343.535461 841.582736,340.852991 839.850524,338.066446C838.118313,335.279901 836.348637,333.000000 835.917912,333.000000C835.487187,333.000000 834.820517,331.987500 834.436423,330.750000C834.052329,329.512500 831.010945,324.225000 827.677791,319.000000C824.344637,313.775000 820.803571,308.694970 819.808756,307.711045C818.813940,306.727120 818.000000,305.488249 818.000000,304.957999C818.000000,304.427749 809.900000,291.384278 800.000000,275.972508C790.100000,260.560738 782.000000,247.581853 782.000000,247.130542C782.000000,246.679230 781.100000,245.495486 780.000000,244.500000C778.900000,243.504514 778.000000,242.381139 778.000000,242.003611C778.000000,241.626084 775.309226,237.308328 772.020501,232.408599C768.731777,227.508869 766.031777,223.007244 766.020501,222.404988C766.009226,221.802731 765.100000,220.495486 764.000000,219.500000C762.900000,218.504514 762.000000,217.232703 762.000000,216.673753C762.000000,216.114804 761.325762,214.912457 760.501694,214.001872C759.677626,213.091287 747.415126,194.286914 733.251694,172.214377C719.088262,150.141840 706.729022,130.826431 705.786716,129.291246C704.844410,127.756061 696.598134,115.025000 687.461659,101.000000C678.325184,86.975000 670.591606,74.825000 670.275931,74.000000C669.960255,73.175000 668.943377,71.600000 668.016200,70.500000C667.089024,69.400000 661.693311,61.234762 656.025727,52.355027L645.721028,36.210054L625.610514,35.580233C614.549731,35.233832 574.900000,34.518758 537.500000,33.991181C500.100000,33.463603 461.850000,32.783364 452.500000,32.479538C443.150000,32.175712 372.275000,30.820575 295.000000,29.468122C217.725000,28.115670 131.793964,26.557066 104.042143,26.004559C76.290322,25.452051 47.152822,25.000000 39.292143,25.000000L25.000000,25.000000L25.000000,32.979932L25.000000,40.959864L100.085381,119.229932C141.382340,162.278470 180.322862,202.450000 186.619873,208.500000C192.916884,214.550000 198.053462,219.906197 198.034492,220.402659C198.015521,220.899122 205.765937,229.224122 215.257637,238.902659C224.749338,248.581197 235.806725,260.325000 239.829609,265.000000C243.852493,269.675000 252.466308,278.675000 258.971419,285.000000C265.476531,291.325000 298.406644,325.216073 332.149448,360.313495C365.892251,395.410918 400.629754,431.635918 409.343899,440.813495C418.058043,449.991073 434.370543,467.022624 445.593899,478.661388C456.817254,490.300151 466.000000,500.274838 466.000000,500.827358C466.000000,501.379879 467.712701,503.188426 469.806003,504.846352C473.524039,507.791091 473.951626,507.877273 488.306003,508.575134L503.000000,509.289507L503.000000,514.797573L503.000000,520.305640L478.250000,519.661684C464.637500,519.307509 435.612500,518.719292 413.750000,518.354536C391.887500,517.989780 374.000000,517.298761 374.000000,516.818939C374.000000,516.339116 367.362500,516.071064 359.250000,516.223267L344.500000,516.500000L344.213247,525.100527L343.926494,533.701054L480.079962,673.100527C554.964369,749.770237 629.793408,826.230450 646.366715,843.012111C662.940022,859.793771 700.800000,898.513013 730.500000,929.054869C760.200000,959.596726 787.754186,988.046380 791.731524,992.276323L798.963049,999.967129L825.231524,1000.977334C839.679186,1001.532947 866.210942,1001.990343 884.190983,1001.993770C904.899434,1001.997716 917.108500,1002.366539 917.500000,1003.000000C917.856783,1003.577287 923.271324,1004.004078 930.309017,1004.009648C937.014058,1004.014954 984.575000,1005.360613 1036.000000,1007.000000C1087.425000,1008.639387 1140.610942,1009.985046 1154.190983,1009.990352C1167.771024,1009.995658 1179.120813,1010.386463 1179.412737,1010.858806C1179.704661,1011.331149 1193.118719,1012.019692 1209.221754,1012.388902C1225.324789,1012.758111 1241.537500,1013.329793 1245.250000,1013.659306L1252.000000,1014.258421L1252.000000,1019.629210L1252.000000,1025.000000L1237.250000,1024.985796C1229.137500,1024.977984 1200.225000,1024.325991 1173.000000,1023.536923C1145.775000,1022.747855 1099.200000,1021.551344 1069.500000,1020.878010C1039.800000,1020.204676 1015.264796,1019.308130 1014.977325,1018.885685C1014.689853,1018.463240 978.239853,1017.637232 933.977325,1017.050112C889.714796,1016.462991 851.700000,1015.770805 849.500000,1015.511922C847.300000,1015.253038 826.600000,1014.811401 803.500000,1014.530507C780.400000,1014.249612 739.362773,1013.507494 712.306162,1012.881355C685.249551,1012.255215 662.412051,1012.011640 661.556162,1012.340075C660.338118,1012.807482 660.000000,1014.577379 660.000000,1020.485878L660.000000,1028.034526L754.250000,1127.272949C806.087500,1181.854081 854.721080,1233.371313 862.324622,1241.755686C869.928164,1250.140059 876.459450,1257.000000 876.838590,1257.000000C877.217730,1257.000000 887.892810,1267.912500 900.560990,1281.250000C913.229170,1294.587500 930.011302,1312.587500 937.854616,1321.250000C945.697931,1329.912500 952.435085,1337.000000 952.826070,1337.000000C953.217055,1337.000000 963.673074,1347.687500 976.061666,1360.750000C988.450259,1373.812500 1005.005362,1391.587500 1012.850784,1400.250000C1020.696206,1408.912500 1027.434860,1416.000000 1027.825570,1416.000000C1028.216280,1416.000000 1048.327862,1436.899009 1072.517976,1462.442242L1116.500000,1508.884484L1349.750000,1508.942242z"/></svg>