<?xml version="1.0" encoding="UTF-8" standalone="no"?>
<svg
   xmlns:dc="http://purl.org/dc/elements/1.1/"
   xmlns:cc="http://creativecommons.org/ns#"
   xmlns:rdf="http://www.w3.org/1999/02/22-rdf-syntax-ns#"
   xmlns:svg="http://www.w3.org/2000/svg"
   xmlns="http://www.w3.org/2000/svg"
   version="1.1"
   width="1607"
   height="1533"
   viewBox="0 0 1607 1533"
   id="svg12">
  <metadata
     id="metadata18">
    <rdf:RDF>
      <cc:Work
         rdf:about="">
        <dc:format>image/svg+xml</dc:format>
        <dc:type
           rdf:resource="http://purl.org/dc/dcmitype/StillImage" />
      </cc:Work>
    </rdf:RDF>
  </metadata>
  <defs
     id="defs16" />
  <path
     stroke="none"
     fill="#000000"
     fill-rule="evenodd"
     d="M 803.5 1533 L 0 1533 L 0 766.5 L 0 0 L 803.5 0 L 1607 0 L 1607 766.5 L 1607 1533 L 803.5 1533 L 803.5 1533 M 1349.75 1508.94 L 1583 1509 L 1583 1502.04 L 1576.17 1484.29 L 1543 1433 L 1482.31 1338.18 L 1367.98 1159.94 L 1288 1035.13 L 1286.35 1032.87 L 1283.57 1029 L 1278.48 1020.62 L 1269.76 1007.62 L 1262.9 996.5 L 1259.02 990.5 L 1255.88 985.898 L 1250.5 977.012 L 1243.5 966.073 L 1239.24 959.459 L 1234.24 951.614 L 1227.25 940.888 L 1224 935.179 L 1222.03 932.523 L 1219.39 928.618 L 1216.82 924 L 1211.46 916.274 L 1208 910.179 L 1206.03 907.523 L 1203.39 903.618 L 1200.61 898.876 L 1196.51 892.876 L 1192.51 886.377 L 1186.91 877.877 L 1181.41 869.342 L 1175.89 860.842 L 1160.64 837.754 L 1149 819.442 L 1147.26 816.569 L 1142.01 815.773 L 1129.5 821.611 L 1111.5 830.175 L 1095 838.096 L 1084.26 842.467 L 1080.44 844.099 L 1073.96 848.022 L 1066.09 851 L 1063.49 852.022 L 1056.96 856.022 L 1049.57 859 L 1044.5 861.433 L 1036.21 865.503 L 1029 868.534 L 1020.57 872.964 L 1013.02 876 L 1010.31 877.087 L 1004.58 871.658 L 999.021 864.821 L 992.808 857.862 L 979.741 841.657 L 970.463 831.239 L 964.722 824.328 L 949.106 804.633 L 936.989 791 L 933.462 786.763 L 921.668 771.763 L 911.972 761 L 908.462 756.763 L 896.668 741.763 L 886.972 731 L 883.469 726.75 L 873.155 713.5 L 862.306 701 L 854.737 691.803 L 809.26 636.553 L 768.02 587 L 774.515 587 L 781.011 587 L 805.287 616.25 L 831.923 649 L 836.989 655 L 847.162 666.5 L 857.863 680.25 L 861.915 685 L 865.47 689.25 L 870.949 696 L 881.148 707.5 L 890.943 720 L 895.989 726 L 906.148 737.5 L 915.943 750 L 920.994 756 L 939.144 777 L 956.97 799 L 962.427 805.526 L 969.953 813.526 L 975.453 820.082 L 980 826.527 L 988.999 836.946 L 998.999 848.393 L 1006.73 858.841 L 1011.45 864.235 L 1015.73 863.524 L 1020 861.086 L 1028.32 857.456 L 1036.5 853.357 L 1038.95 852 L 1046.54 849.055 L 1054.59 844.555 L 1057.74 843 L 1066.17 839.852 L 1073 835.852 L 1074.67 835 L 1083.17 831.852 L 1090 827.852 L 1091.75 826.999 L 1099.8 824.016 L 1107.63 819.516 L 1110.93 818 L 1124.6 812.372 L 1136.8 806.493 L 1079.39 714.371 L 1019.85 620.711 L 1018 617.852 L 1010.89 605.391 L 1002.99 594 L 1001.11 590.887 L 996.754 583.137 L 991.491 574.67 L 986.75 567.739 L 984 563.741 L 977.829 553.171 L 970.49 542.5 L 967.628 538 L 964.649 532.808 L 890.185 529.558 L 804.503 528 L 792 528 L 792 522.134 L 792 516.268 L 847.25 516.702 L 904.5 518.017 L 931.25 519.214 L 956 519.299 L 950.437 510.534 L 943.937 502 L 943 500.135 L 941.25 495.873 L 938.231 491.489 L 934.231 485.053 L 929.5 478.472 L 924.677 470.674 L 920.078 463.755 L 916.176 458 L 912.775 451.508 L 909.25 446.681 L 907 442.496 L 904.715 439.323 L 900.27 433.323 L 896.804 426.836 L 893.829 423.261 L 891.502 419.01 L 889.85 415.407 L 884.33 407.646 L 878.595 399.5 L 875.154 393.854 L 870.461 386.553 L 868 382.838 L 863.5 375.341 L 859 368.46 L 852.813 358.258 L 844.813 346.711 L 843 344.027 L 839.851 338.066 L 835.918 333 L 834.436 330.75 L 827.678 319 L 819.809 307.711 L 818 304.958 L 800 275.973 L 782 247.131 L 780 244.5 L 778 242.004 L 772.021 232.409 L 766.021 222.405 L 764 219.5 L 762 216.674 L 760.502 214.002 L 733.252 172.214 L 705.787 129.291 L 687.462 101 L 670.276 74 L 668.016 70.5 L 656.026 52.355 L 645.721 36.2101 L 625.611 35.5802 L 537.5 33.9912 L 452.5 32.4795 L 295 29.4681 L 104.042 26.0046 L 39.2921 25 L 25 25 L 25 32.9799 L 25 40.9599 L 100.085 119.23 L 186.62 208.5 L 198.034 220.403 L 215.258 238.903 L 239.83 265 L 258.971 285 L 332.149 360.313 L 409.344 440.813 L 445.594 478.661 L 466 500.827 L 469.806 504.846 L 488.306 508.575 L 503 509.29 L 503 514.798 L 503 520.306 L 478.25 519.662 L 413.75 518.355 L 374 516.819 L 359.25 516.223 L 344.5 516.5 L 344.213 525.101 L 343.926 533.701 L 480.08 673.101 L 646.367 843.012 L 730.5 929.055 L 791.732 992.276 L 798.963 999.967 L 825.232 1000.98 L 884.191 1001.99 L 917.5 1003 L 930.309 1004.01 L 1036 1007 L 1154.19 1009.99 L 1179.41 1010.86 L 1209.22 1012.39 L 1245.25 1013.66 L 1252 1014.26 L 1252 1019.63 L 1252 1025 L 1237.25 1024.99 L 1173 1023.54 L 1069.5 1020.88 L 1014.98 1018.89 L 933.977 1017.05 L 849.5 1015.51 L 803.5 1014.53 L 712.306 1012.88 L 661.556 1012.34 L 660 1020.49 L 660 1028.03 L 754.25 1127.27 L 862.325 1241.76 L 876.839 1257 L 900.561 1281.25 L 937.855 1321.25 L 952.826 1337 L 976.062 1360.75 L 1012.85 1400.25 L 1027.83 1416 L 1072.52 1462.44 L 1116.5 1508.88 L 1349.75 1508.94 L 1349.75 1508.94 Z"
     id="path10" />
</svg>
