<svg version="1.1" xmlns="http://www.w3.org/2000/svg" xmlns:xlink="http://www.w3.org/1999/xlink" width="1683" height="1038" viewBox="0 0 1683 1038"><path stroke="none" fill="#000000" fill-rule="evenodd" d="M841.500000,1038.000000L0.000000,1038.000000L0.000000,519.000000L0.000000,0.000000L841.500000,0.000000L1683.000000,0.000000L1683.000000,519.000000L1683.000000,1038.000000L841.500000,1038.000000zM345.000000,1014.000000L665.000000,1014.000000L665.000000,790.000000L665.000000,566.000000L584.000000,566.000000L503.000000,566.000000L503.000000,559.500000L503.000000,553.000000L513.000000,553.000000L523.000000,553.000000L523.000000,474.000000L523.000000,395.000000L528.500000,395.000000L534.000000,395.000000L534.000000,475.500000L534.000000,556.000000L604.500000,556.000000C650.833333,556.000000 675.000000,556.342790 675.000000,557.000000C675.000000,557.662116 724.500000,558.000000 821.500000,558.000000L968.000000,558.000000L968.000000,563.000000L968.000000,568.000000L822.500000,568.000000L677.000000,568.000000L677.000000,790.500000L677.000000,1013.000000L893.500000,1013.000000L1110.000000,1013.000000L1110.000000,790.500000L1110.000000,568.000000L1089.000000,568.000000L1068.000000,568.000000L1068.000000,563.000000L1068.000000,558.000000L1088.500000,558.000000L1109.000000,558.000000L1109.000000,523.500000L1109.000000,489.000000L1115.500000,489.000000L1122.000000,489.000000L1122.000000,522.500000L1122.000000,556.000000L1128.000000,556.000000L1134.000000,556.000000L1134.000000,562.500000C1134.000000,568.766667 1133.910256,569.000000 1131.500000,569.000000L1129.000000,569.000000L1129.000000,791.500000L1129.000000,1014.000000L1394.000000,1014.000000L1659.000000,1014.000000L1659.000000,926.000000L1659.000000,838.000000L1457.500000,838.000000L1256.000000,838.000000L1256.000000,784.000000L1256.000000,730.000000L1263.500000,730.000000L1271.000000,730.000000L1271.000000,778.500000L1271.000000,827.000000L1465.000000,827.000000L1659.000000,827.000000L1659.000000,698.000000L1659.000000,569.000000L1465.000000,569.000000L1271.000000,569.000000L1271.000000,600.000000L1271.000000,631.000000L1263.500000,631.000000L1256.000000,631.000000L1256.000000,600.000000L1256.000000,569.000000L1244.500000,569.000000L1233.000000,569.000000L1233.000000,562.500000L1233.000000,556.000000L1444.000000,556.000000L1655.000000,556.000000L1655.000000,418.559017C1655.000000,328.010384 1655.341182,280.907172 1656.000000,280.500000C1656.658169,280.093229 1657.000000,236.489616 1657.000000,152.940983L1657.000000,26.000000L1505.500000,26.000000L1354.000000,26.000000L1354.000000,29.799090C1354.000000,31.888589 1353.316371,91.176089 1352.480824,161.549090C1351.645277,231.922090 1350.759400,290.062500 1350.512209,290.750000C1350.166451,291.711635 1343.250125,292.000000 1320.531385,292.000000L1291.000000,292.000000L1291.000000,286.500000L1291.000000,281.000000L1315.339328,281.000000L1339.678657,281.000000L1340.339328,253.837534C1340.702698,238.898177 1341.000000,181.298177 1341.000000,125.837534L1341.000000,25.000000L1090.000000,25.000000L839.000000,25.000000L839.000000,78.996540L839.000000,132.993081L979.750000,133.246540L1120.500000,133.500000L1120.756448,207.250000L1121.012896,281.000000L1168.506448,281.000000L1216.000000,281.000000L1216.000000,286.500000C1216.000000,289.525000 1215.662500,291.946711 1215.250000,291.881579C1214.837500,291.816447 1193.462500,291.816447 1167.750000,291.881579L1121.000000,292.000000L1121.000000,340.393011C1121.000000,383.598617 1120.830443,388.851088 1119.418213,389.393011C1118.548229,389.726855 1115.848229,390.000000 1113.418213,390.000000L1109.000000,390.000000L1109.000000,268.000000L1109.000000,146.000000L883.000000,146.000000L657.000000,146.000000L657.000000,141.000000L657.000000,136.000000L742.000000,136.000000L827.000000,136.000000L827.000000,83.500000L827.000000,31.000000L680.000000,31.000000L533.000000,31.000000L533.000000,83.500000L533.000000,136.000000L545.500000,136.000000L558.000000,136.000000L558.000000,141.000000L558.000000,146.000000L546.000000,146.000000L534.000000,146.000000L534.000000,178.000000L534.000000,210.000000L528.500000,210.000000L523.000000,210.000000L523.000000,178.059017C523.000000,157.843718 522.632895,145.891151 522.000000,145.500000C521.352615,145.099894 521.000000,125.155620 521.000000,88.938995L521.000000,32.996024L273.250000,33.248012L25.500000,33.500000L25.248103,293.250000L24.996205,553.000000L201.498103,553.000000L378.000000,553.000000L378.000000,559.500000L378.000000,566.000000L359.000000,566.000000C342.777778,566.000000 340.000000,565.780702 340.000000,564.500000C340.000000,563.173016 321.833333,563.000000 182.500000,563.000000L25.000000,563.000000L25.000000,788.500000L25.000000,1014.000000L345.000000,1014.000000z"/></svg>