<?xml version="1.0" encoding="UTF-8" standalone="no"?>
<svg
   xmlns:dc="http://purl.org/dc/elements/1.1/"
   xmlns:cc="http://creativecommons.org/ns#"
   xmlns:rdf="http://www.w3.org/1999/02/22-rdf-syntax-ns#"
   xmlns:svg="http://www.w3.org/2000/svg"
   xmlns="http://www.w3.org/2000/svg"
   version="1.1"
   width="1683"
   height="1038"
   viewBox="0 0 1683 1038"
   id="svg12">
  <metadata
     id="metadata18">
    <rdf:RDF>
      <cc:Work
         rdf:about="">
        <dc:format>image/svg+xml</dc:format>
        <dc:type
           rdf:resource="http://purl.org/dc/dcmitype/StillImage" />
      </cc:Work>
    </rdf:RDF>
  </metadata>
  <defs
     id="defs16" />
  <path
     stroke="none"
     fill="#000000"
     fill-rule="evenodd"
     d="M 841.5 1038 L 0 1038 L 0 519 L 0 0 L 841.5 0 L 1683 0 L 1683 519 L 1683 1038 L 841.5 1038 L 841.5 1038 M 345 1014 L 665 1014 L 665 790 L 665 566 L 584 566 L 503 566 L 503 559.5 L 503 553 L 513 553 L 523 553 L 523 474 L 523 395 L 528.5 395 L 534 395 L 534 475.5 L 534 556 L 604.5 556 L 675 557 L 821.5 558 L 968 558 L 968 563 L 968 568 L 822.5 568 L 677 568 L 677 790.5 L 677 1013 L 893.5 1013 L 1110 1013 L 1110 790.5 L 1110 568 L 1089 568 L 1068 568 L 1068 563 L 1068 558 L 1088.5 558 L 1109 558 L 1109 523.5 L 1109 489 L 1115.5 489 L 1122 489 L 1122 522.5 L 1122 556 L 1128 556 L 1134 556 L 1134 562.5 L 1131.5 569 L 1129 569 L 1129 791.5 L 1129 1014 L 1394 1014 L 1659 1014 L 1659 926 L 1659 838 L 1457.5 838 L 1256 838 L 1256 784 L 1256 730 L 1263.5 730 L 1271 730 L 1271 778.5 L 1271 827 L 1465 827 L 1659 827 L 1659 698 L 1659 569 L 1465 569 L 1271 569 L 1271 600 L 1271 631 L 1263.5 631 L 1256 631 L 1256 600 L 1256 569 L 1244.5 569 L 1233 569 L 1233 562.5 L 1233 556 L 1444 556 L 1655 556 L 1655 418.559 L 1656 280.5 L 1657 152.941 L 1657 26 L 1505.5 26 L 1354 26 L 1354 29.7991 L 1352.48 161.549 L 1350.51 290.75 L 1320.53 292 L 1291 292 L 1291 286.5 L 1291 281 L 1315.34 281 L 1339.68 281 L 1340.34 253.838 L 1341 125.838 L 1341 25 L 1090 25 L 839 25 L 839 78.9965 L 839 132.993 L 979.75 133.247 L 1120.5 133.5 L 1120.76 207.25 L 1121.01 281 L 1168.51 281 L 1216 281 L 1216 286.5 L 1215.25 291.882 L 1167.75 291.882 L 1121 292 L 1121 340.393 L 1119.42 389.393 L 1113.42 390 L 1109 390 L 1109 268 L 1109 146 L 883 146 L 657 146 L 657 141 L 657 136 L 742 136 L 827 136 L 827 83.5 L 827 31 L 680 31 L 533 31 L 533 83.5 L 533 136 L 545.5 136 L 558 136 L 558 141 L 558 146 L 546 146 L 534 146 L 534 178 L 534 210 L 528.5 210 L 523 210 L 523 178.059 L 522 145.5 L 521 88.939 L 521 32.996 L 273.25 33.248 L 25.5 33.5 L 25.2481 293.25 L 24.9962 553 L 201.498 553 L 378 553 L 378 559.5 L 378 566 L 359 566 L 340 564.5 L 182.5 563 L 25 563 L 25 788.5 L 25 1014 L 345 1014 L 345 1014 Z"
     id="path10" />
</svg>
