<svg version="1.1" xmlns="http://www.w3.org/2000/svg" xmlns:xlink="http://www.w3.org/1999/xlink" width="1555" height="1429" viewBox="0 0 1555 1429"><path stroke="none" fill="#000000" fill-rule="evenodd" d="M777.500000,1429.000000L0.000000,1429.000000L0.000000,714.500000L0.000000,0.000000L777.500000,0.000000L1555.000000,0.000000L1555.000000,714.500000L1555.000000,1429.000000L777.500000,1429.000000zM173.351412,1405.000000L321.706528,1405.000000L322.353264,1397.349122C322.708969,1393.141140 323.000000,1270.516140 323.000000,1124.849122L323.000000,860.000000L342.500000,860.000000L362.000000,860.000000L362.000000,865.500000L362.000000,871.000000L348.000000,871.000000L334.000000,871.000000L334.000000,1127.500000L334.000000,1384.000000L483.000000,1384.000000L632.000000,1384.000000L632.000000,1127.500000L632.000000,871.000000L547.500000,871.000000L463.000000,871.000000L463.000000,865.500000L463.000000,860.000000L593.500000,860.000000L724.000000,860.000000L724.000000,865.500000L724.000000,871.000000L683.500000,871.000000L643.000000,871.000000L643.000000,1123.980948L643.000000,1376.961896L645.250000,1377.429187C646.487500,1377.686198 660.271327,1378.392381 675.880727,1378.998484C694.746622,1379.731034 791.280622,1380.075672 963.821174,1380.026464C1106.579021,1379.985750 1223.457699,1379.850640 1223.551570,1379.726219C1223.645442,1379.601799 1224.011008,1265.087500 1224.363940,1125.250000L1225.005635,871.000000L1025.002817,871.000000L825.000000,871.000000L825.000000,865.500000L825.000000,860.000000L909.000000,860.000000L993.000000,860.000000L993.000000,830.000000L993.000000,800.000000L998.000000,800.000000L1003.000000,800.000000L1003.000000,830.000000L1003.000000,860.000000L1117.000000,860.000000L1231.000000,860.000000L1231.000000,696.500000L1231.000000,533.000000L1117.000000,533.000000L1003.000000,533.000000L1003.000000,554.000000L1003.000000,575.000000L998.000000,575.000000L993.000000,575.000000L993.000000,554.500000L993.000000,534.000000L988.000000,534.000000L983.000000,534.000000L983.000000,528.500000L983.000000,523.000000L1107.000000,523.000000C1189.000000,523.000000 1231.000000,522.661290 1231.000000,522.000000C1231.000000,521.412313 1234.480328,521.000000 1239.440983,521.000000C1244.083524,521.000000 1248.160081,521.450000 1248.500000,522.000000C1248.839919,522.550000 1253.141476,523.000000 1258.059017,523.000000L1267.000000,523.000000L1267.000000,528.000000L1267.000000,533.000000L1254.000000,533.000000L1241.000000,533.000000L1241.000000,782.000000L1241.000000,1031.000000L1386.000000,1031.000000L1531.000000,1031.000000L1531.000000,783.163925L1531.000000,535.327850L1470.835203,534.663925C1437.744564,534.298766 1401.069564,534.000000 1389.335203,534.000000L1368.000000,534.000000L1368.000000,528.500000C1368.000000,524.277778 1368.348485,523.000000 1369.500000,523.000000C1370.829317,523.000000 1371.000000,494.666447 1371.000000,273.998020L1371.000000,24.996040L1122.250000,25.248020L873.500000,25.500000L873.248021,274.850851L872.996043,524.201702L877.498021,523.843645L882.000000,523.485588L882.000000,528.779006L882.000000,534.072424L872.250000,533.786212L862.500000,533.500000L862.247934,295.250000L861.995868,57.000000L541.497934,57.000000L221.000000,57.000000L221.000000,464.000000C221.000000,687.850000 220.887500,871.087610 220.750000,871.194688C220.612500,871.301767 176.625000,871.639267 123.000000,871.944688L25.500000,872.500000L25.248148,1138.750000L24.996296,1405.000000L173.351412,1405.000000z"/></svg>