<?xml version="1.0" encoding="UTF-8" standalone="no"?>
<svg
   xmlns:dc="http://purl.org/dc/elements/1.1/"
   xmlns:cc="http://creativecommons.org/ns#"
   xmlns:rdf="http://www.w3.org/1999/02/22-rdf-syntax-ns#"
   xmlns:svg="http://www.w3.org/2000/svg"
   xmlns="http://www.w3.org/2000/svg"
   version="1.1"
   width="1366"
   height="1059"
   viewBox="0 0 1366 1059"
   id="svg12">
  <metadata
     id="metadata18">
    <rdf:RDF>
      <cc:Work
         rdf:about="">
        <dc:format>image/svg+xml</dc:format>
        <dc:type
           rdf:resource="http://purl.org/dc/dcmitype/StillImage" />
      </cc:Work>
    </rdf:RDF>
  </metadata>
  <defs
     id="defs16" />
  <path
     stroke="none"
     fill="#000000"
     fill-rule="evenodd"
     d="M 683 1059 L 0 1059 L 0 529.5 L 0 0 L 683 0 L 1366 0 L 1366 529.5 L 1366 1059 L 683 1059 L 683 1059 M 913.25 1034.8 L 1033 1035 L 1033 1028.5 L 1033 1022 L 1038.5 1022 L 1044 1022 L 1044 1028.5 L 1044 1035 L 1089.75 1034.98 L 1237.5 1033.5 L 1340.75 1032.02 L 1342 783.107 L 1340.75 533.746 L 1197 536.596 L 1049 539.957 L 1043.5 540 L 1043.77 743.5 L 1044.05 947 L 1038.52 947 L 1033 947 L 1033 743.382 L 1033 539.763 L 945.5 540.509 L 858 541.254 L 858 534.127 L 858 527 L 883 527 L 908 526 L 970.5 525 L 1033 525 L 1033 428 L 1033 331 L 1038.5 331 L 1044 331 L 1044 430.152 L 1044 529.304 L 1066.25 528.657 L 1130.75 527.348 L 1173 526.006 L 1246.75 524.659 L 1331.25 523.345 L 1342 522.699 L 1342 273.849 L 1342 25 L 1193 25 L 1044 25 L 1044 140.5 L 1044 256 L 1038.5 256 L 1033 256 L 1033 140.5 L 1033 25 L 783.504 25 L 534.008 25 L 533.754 146.75 L 533.5 268.5 L 528.25 268.802 L 523 269.105 L 523 147.05 L 523 24.996 L 274.25 25.248 L 25.5 25.5 L 25.2461 148.75 L 24.9921 272 L 153.889 272 L 283.393 273.582 L 284 401.463 L 284 527.762 L 357 528.507 L 430 529.252 L 430 535.632 L 430 542.012 L 351.75 541.756 L 273.5 541.5 L 273.246 412.25 L 272.992 283 L 148.996 283 L 25 283 L 25 531.5 L 25 780 L 274 780 L 523 780 L 523 661.038 L 523 542.075 L 513.75 541.788 L 504.5 541.5 L 504.5 536 L 504.5 530.5 L 513.75 530.514 L 523 530.529 L 523 437.264 L 523 344 L 528.5 344 L 534 344 L 534 437.124 L 534 530.248 L 596.75 529.622 L 721.25 528.376 L 783 527.756 L 783 534.378 L 783 541 L 658.5 541 L 534 541 L 534 787 L 534 1033 L 569.75 1033.14 L 699.5 1033.94 L 913.25 1034.8 L 913.25 1034.8 Z"
     id="path10" />
</svg>
