<svg version="1.1" xmlns="http://www.w3.org/2000/svg" xmlns:xlink="http://www.w3.org/1999/xlink" width="1246" height="2419" viewBox="0 0 1246 2419"><path stroke="none" fill="#000000" fill-rule="evenodd" d="M623.000000,2419.000000L0.000000,2419.000000L0.000000,1209.500000L0.000000,0.000000L623.000000,0.000000L1246.000000,0.000000L1246.000000,1209.500000L1246.000000,2419.000000L623.000000,2419.000000zM1143.750000,2394.839010L1222.000000,2395.000000L1222.000000,2243.500000L1222.000000,2092.000000L1158.000000,2092.000000L1094.000000,2092.000000L1094.000000,2087.000000L1094.000000,2082.000000L1158.000000,2082.000000L1222.000000,2082.000000L1222.000000,1832.000000L1222.000000,1582.000000L1027.503649,1582.000000L833.007298,1582.000000L832.753649,1715.250000L832.500000,1848.500000L827.750000,1848.804791C823.053440,1849.106153 823.000000,1849.075215 823.000000,1846.054791L823.000000,1843.000000L693.500000,1843.000000L564.000000,1843.000000L564.000000,1838.000000L564.000000,1833.000000L693.500000,1833.000000L823.000000,1833.000000L823.000000,1707.500000L823.000000,1582.000000L810.000000,1582.000000L797.000000,1582.000000L797.000000,1577.000000L797.000000,1572.000000L1009.500000,1572.000000L1222.000000,1572.000000L1222.000000,798.500000L1222.000000,25.000000L777.500000,25.000000L333.000000,25.000000L333.000000,179.000000L333.000000,333.000000L283.500000,333.000000L234.000000,333.000000L234.000000,328.000000L234.000000,323.000000L278.500000,323.000000L323.000000,323.000000L323.000000,173.996722L323.000000,24.993443L174.250000,25.246722L25.500000,25.500000L25.246722,174.250000L24.993443,323.000000L68.996722,323.000000L113.000000,323.000000L113.000000,328.000000L113.000000,333.000000L71.119501,333.000000L29.239003,333.000000L28.653473,389.250000C28.331432,420.187500 27.376349,882.861193 26.531067,1417.413762C25.685785,1951.966331 25.125259,2389.458592 25.285454,2389.618787C25.445648,2389.778982 126.359456,2390.425564 249.538358,2391.055635C372.717261,2391.685707 606.700000,2392.758500 769.500000,2393.439620C932.300000,2394.120740 1100.712500,2394.750466 1143.750000,2394.839010z"/></svg>