<svg version="1.1" xmlns="http://www.w3.org/2000/svg" xmlns:xlink="http://www.w3.org/1999/xlink" width="3095" height="2008" viewBox="0 0 3095 2008"><path stroke="none" fill="#000000" fill-rule="evenodd" d="M1547.500000,2008.000000L0.000000,2008.000000L0.000000,1004.000000L0.000000,0.000000L1547.500000,0.000000L3095.000000,0.000000L3095.000000,1004.000000L3095.000000,2008.000000L1547.500000,2008.000000zM278.500000,1984.000000L530.000000,1984.000000L530.000000,1867.500000L530.000000,1751.000000L535.000000,1751.000000L540.000000,1751.000000L540.000000,1867.500000L540.000000,1984.000000L643.000000,1984.000000L746.000000,1984.000000L746.000000,1943.000000L746.000000,1902.000000L752.000000,1902.000000L758.000000,1902.000000L758.000000,1943.000000L758.000000,1984.000000L1533.500000,1984.000000L2309.000000,1984.000000L2309.000000,1944.500000L2309.000000,1905.000000L2314.500000,1905.000000L2320.000000,1905.000000L2320.000000,1944.500000L2320.000000,1984.000000L2695.500000,1984.000000L3071.000000,1984.000000L3071.000000,1590.000000L3071.000000,1196.000000L3009.000000,1196.000000L2947.000000,1196.000000L2947.000000,1190.500000L2947.000000,1185.000000L3009.000000,1185.000000L3071.000000,1185.000000L3071.000057,790.250000L3071.000113,395.500000L2775.000057,395.778725L2479.000000,396.057450L2479.000000,390.528725L2479.000000,385.000000L2775.000000,385.000000L3071.000000,385.000000L3071.000000,204.998619L3071.000000,24.997238L2712.750000,25.248619L2354.500000,25.500000L2354.247275,205.250000L2353.994551,385.000000L2368.997275,385.000000L2384.000000,385.000000L2384.000000,390.485753L2384.000000,395.971507L2352.750000,396.235753L2321.500000,396.500000L2321.248744,790.750000L2320.997487,1185.000000L2386.498744,1185.000000L2452.000000,1185.000000L2452.000000,1190.388889C2452.000000,1194.058092 2451.601104,1195.762963 2450.750000,1195.731355C2450.062500,1195.705822 2420.587500,1195.755822 2385.250000,1195.842466L2321.000000,1196.000000L2321.000000,1354.334857C2321.000000,1441.419028 2320.701010,1545.819028 2320.335577,1586.334857L2319.671154,1660.000000L2314.335577,1660.000000L2309.000000,1660.000000L2309.000000,1616.500000L2309.000000,1573.000000L1533.500000,1573.000000L758.000000,1573.000000L758.000000,1615.000000L758.000000,1657.000000L752.140887,1657.000000L746.281774,1657.000000L746.785721,1437.000000L747.289668,1217.000000L740.644834,1217.000000L734.000000,1217.000000L734.000000,1211.500000L734.000000,1206.000000L740.500000,1206.000000L747.000000,1206.000000L747.000000,956.500000L747.000000,707.000000L686.000000,707.000000L625.000000,707.000000L625.000000,701.500000L625.000000,696.000000L686.000000,696.000000L747.000000,696.000000L747.000000,549.498628L747.000000,402.997257L386.250000,403.248628L25.500000,403.500000L25.246667,549.750000L24.993334,696.000000L277.496667,696.000000L530.000000,696.000000L530.001823,701.250000L530.003646,706.500000L524.251823,706.520702C521.088320,706.532088 407.462500,706.644588 271.750000,706.770702L25.000000,707.000000L25.000000,956.500000L25.000000,1206.000000L287.000000,1206.000000L549.000000,1206.000000L549.000000,1211.500000L549.000000,1217.000000L543.500000,1217.000000L538.000000,1217.000000L538.000000,1271.000000L538.000000,1325.000000L533.000000,1325.000000L528.000000,1325.000000L528.000000,1271.000000L528.000000,1217.000000L277.500000,1217.000000L27.000000,1217.000000L27.000000,1344.500000L27.000000,1472.000000L60.000000,1472.000000L93.000000,1472.000000L93.000000,1477.000000L93.000000,1482.000000L60.000000,1482.000000L27.000000,1482.000000L27.000000,1733.000000L27.000000,1984.000000L278.500000,1984.000000z"/></svg>