<?xml version="1.0" encoding="UTF-8" standalone="no"?>
<svg
   xmlns:dc="http://purl.org/dc/elements/1.1/"
   xmlns:cc="http://creativecommons.org/ns#"
   xmlns:rdf="http://www.w3.org/1999/02/22-rdf-syntax-ns#"
   xmlns:svg="http://www.w3.org/2000/svg"
   xmlns="http://www.w3.org/2000/svg"
   version="1.1"
   width="1107"
   height="747"
   viewBox="0 0 1107 747"
   id="svg12">
  <metadata
     id="metadata18">
    <rdf:RDF>
      <cc:Work
         rdf:about="">
        <dc:format>image/svg+xml</dc:format>
        <dc:type
           rdf:resource="http://purl.org/dc/dcmitype/StillImage" />
      </cc:Work>
    </rdf:RDF>
  </metadata>
  <defs
     id="defs16" />
  <path
     stroke="none"
     fill="#000000"
     fill-rule="evenodd"
     d="M 553.5 747 L 0 747 L 0 373.5 L 0 0 L 553.5 0 L 1107 0 L 1107 373.5 L 1107 747 L 553.5 747 L 553.5 747 M 174.5 723 L 324 723 L 324 710 L 324 697 L 329.5 697 L 335 697 L 335 710 L 335 723 L 584.5 723 L 834 723 L 834 474 L 834 225 L 755.5 225 L 677 225 L 677 219.5 L 677 214 L 759.418 214 L 843.418 214.607 L 845 300.107 L 845 385 L 848 385 L 851 390.5 L 848 396 L 845 396 L 845 559.5 L 845 723 L 964 723 L 1083 723 L 1083 559.5 L 1083 396 L 1005 396 L 927 396 L 927 390.5 L 927 385 L 1005 385 L 1083 385 L 1083 334.5 L 1083 284 L 1012.5 284 L 942 284 L 942 286.5 L 937 289 L 932 289 L 932 252.5 L 932 216 L 937 216 L 942 216 L 942 245 L 942 274 L 1012.5 274 L 1083 274 L 1083 149.5 L 1083 25 L 1012.5 25 L 942 25 L 942 71.5 L 942 118 L 937 118 L 932 118 L 932 71.5 L 932 25 L 874.438 25 L 811.901 26.6271 L 746.213 27.7316 L 682.007 26.1045 L 506.757 25 L 335 25 L 335 54 L 335 83 L 329.5 83 L 324 83 L 324 53.9967 L 324 24.9935 L 174.75 25.2467 L 25.5 25.5 L 25.2483 311.25 L 24.9965 597 L 174.498 597 L 324 597 L 324 389.5 L 324 182 L 329.5 182 L 335 182 L 335 198 L 335 214 L 413 214 L 491 214 L 491 219.5 L 491 225 L 413 225 L 335 225 L 335 423.5 L 335 622 L 329.5 622 L 324 622 L 324 615 L 324 608 L 174.5 608 L 25 608 L 25 665.5 L 25 723 L 174.5 723 L 174.5 723 Z"
     id="path10" />
</svg>
